<svg id="content" xmlns="http://www.w3.org/2000/svg" viewBox="0 0 323.47 261.06"><defs><style>.cls-1{fill:#150035;}.cls-2{fill:#fff;}.cls-3{fill:#39a1ff;}</style></defs><g id="illustration"><path class="cls-1" d="M459,95.19,464,92a.08.08,0,0,0,0-.13l-6.29-7.63a.08.08,0,0,0-.15,0l-1,4.65h0l-.24,3.19a.14.14,0,0,0,0,.07l2.58,3A.11.11,0,0,0,459,95.19Z" transform="translate(-244.16 -41.44)"/><path class="cls-1" d="M459,95.68a.57.57,0,0,1-.43-.2l-2.71-3.15v-.27l.23-3.18,1.08-5,.36-.14a.56.56,0,0,1,.57.19l6.43,7.8V92a.59.59,0,0,1-.26.39l-5,3.2A.59.59,0,0,1,459,95.68ZM456.79,92,459,94.6l4.3-2.78-5.5-6.67L457,89Z" transform="translate(-244.16 -41.44)"/><path class="cls-2" d="M477.79,72.11,454.14,58.45a1.73,1.73,0,0,0-1.55-.21h0L448,61a.12.12,0,0,0,0,.19l5.52,5.85a.1.1,0,0,1,0,.09v9.65a5.38,5.38,0,0,0,2.42,4.2l3.53,2,.25.35a13,13,0,0,0,5.48,8.24c.17.12.28,0,.17-.26-.57-1.08-1.64-3.44-1.31-5.29l.39-.16,7.29,4.21a.12.12,0,0,1,.06.06l3,8.13a.12.12,0,0,0,.18.07l4.58-2.76h0a1.68,1.68,0,0,0,.63-1.48V76.3A5.37,5.37,0,0,0,477.79,72.11Z" transform="translate(-244.16 -41.44)"/><path class="cls-1" d="M474.94,98.86a.76.76,0,0,1-.21,0,.64.64,0,0,1-.36-.36l-3-8-6.9-4a9.87,9.87,0,0,0,1.3,4.65.68.68,0,0,1-.1.86.6.6,0,0,1-.76,0,13.45,13.45,0,0,1-5.67-8.45l-.12-.17-3.44-2A5.81,5.81,0,0,1,453,76.79V67.28l-5.43-5.75a.58.58,0,0,1-.16-.5.61.61,0,0,1,.3-.44l4.62-2.77a2.23,2.23,0,0,1,2,.22L478,71.69a5.81,5.81,0,0,1,2.66,4.61V94.13a2.16,2.16,0,0,1-.84,1.88l-4.6,2.77A.58.58,0,0,1,474.94,98.86Zm-10.48-13.5,7.65,4.42.12.23,2.89,7.73,4.21-2.54a1.25,1.25,0,0,0,.4-1.07V76.3a4.93,4.93,0,0,0-2.18-3.78L453.9,58.87a1.27,1.27,0,0,0-1.12-.19l-4.19,2.51,5.35,5.67,0,.28v9.65a4.9,4.9,0,0,0,2.18,3.78l3.68,2.17.33.55a12.66,12.66,0,0,0,4.19,7.1,8.48,8.48,0,0,1-.8-4.41l.05-.26Z" transform="translate(-244.16 -41.44)"/><path class="cls-3" d="M473.14,75,449.43,61.28c-1.3-.75-2.36-.14-2.36,1.36V80.55a5.22,5.22,0,0,0,2.36,4.08l3.65,2.11a.42.42,0,0,1,.18.28,13,13,0,0,0,5.49,8.27c.17.12.28-.05.17-.26-.59-1.12-1.72-3.6-1.27-5.48,0-.09.1-.11.19-.06l15.3,8.83c1.31.76,2.36.15,2.36-1.36V79.06A5.21,5.21,0,0,0,473.14,75Z" transform="translate(-244.16 -41.44)"/><path class="cls-1" d="M474.2,99.13a2.62,2.62,0,0,1-1.3-.39L458,90.16a9.86,9.86,0,0,0,1.3,4.65.67.67,0,0,1-.1.85.6.6,0,0,1-.76,0,13.57,13.57,0,0,1-5.69-8.59l-3.6-2a5.66,5.66,0,0,1-2.6-4.5V62.64a1.9,1.9,0,0,1,3.08-1.77l23.71,13.69a5.66,5.66,0,0,1,2.6,4.5V97a2.09,2.09,0,0,1-.93,1.94A1.67,1.67,0,0,1,474.2,99.13ZM457.75,89a.63.63,0,0,1,.33.09l15.3,8.84A1,1,0,0,0,475,97V79.06a4.75,4.75,0,0,0-2.12-3.67L449.19,61.7a1.23,1.23,0,0,0-1.19-.17,1.25,1.25,0,0,0-.45,1.11V80.55a4.78,4.78,0,0,0,2.12,3.67l3.65,2.1a.9.9,0,0,1,.41.62,12.58,12.58,0,0,0,4.2,7.13,8,8,0,0,1-.75-4.63.61.61,0,0,1,.34-.41A.59.59,0,0,1,457.75,89Z" transform="translate(-244.16 -41.44)"/><rect class="cls-1" x="473.86" y="73.5" width="4.84" height="0.96" transform="translate(-213.29 216.74) rotate(-31.3)"/><rect class="cls-1" x="451.75" y="60.82" width="4.84" height="0.96" transform="translate(-209.92 203.39) rotate(-31.29)"/><rect class="cls-1" x="475.09" y="78.18" width="5.39" height="0.96" transform="translate(-212.09 226.44) rotate(-32.35)"/><polygon class="cls-1" points="236.05 38.25 231.34 41.1 231.34 56.63 235.9 54.13 236.05 53.02 236.05 38.25"/><rect class="cls-1" x="452.05" y="50.7" width="5.18" height="0.96" transform="translate(122.18 458.65) rotate(-85.29)"/><rect class="cls-1" x="449.31" y="48.49" width="0.96" height="5.97" transform="translate(-226.98 143.49) rotate(-23.67)"/><rect class="cls-1" x="445.32" y="52.32" width="0.96" height="4.98" transform="translate(-65.46 374.47) rotate(-60.52)"/><path class="cls-2" d="M463,88.47a2,2,0,0,1-1-.34,3.84,3.84,0,0,1-1.32-1.24,3.16,3.16,0,0,1-.48-1.69c0-.66.19-1.09.56-1.27a1.61,1.61,0,0,1,1.48.27,3.59,3.59,0,0,1,1.31,1.25,3.25,3.25,0,0,1,.46,1.67c0,.66-.2,1.08-.58,1.26A1,1,0,0,1,463,88.47Zm-1.84-4.15a.38.38,0,0,0-.19,0c-.25.12-.3.52-.3.84a2.65,2.65,0,0,0,.41,1.43,3.26,3.26,0,0,0,1.15,1.09,1.29,1.29,0,0,0,1,.23c.2-.1.3-.37.3-.83a2.71,2.71,0,0,0-.39-1.42A3.07,3.07,0,0,0,462,84.61,1.87,1.87,0,0,0,461.12,84.32Zm2.3-.31-2.93-1.69v-.93a2.45,2.45,0,0,1,.37-1.48,1.86,1.86,0,0,1,1.29-.65A1.87,1.87,0,0,0,463,79a.62.62,0,0,0,.18-.51,1.06,1.06,0,0,0-.25-.64,2.31,2.31,0,0,0-.72-.62,4.88,4.88,0,0,0-2.68-.61h-.17L458.06,73l.31,0a7.27,7.27,0,0,1,4.27,1.11,8.68,8.68,0,0,1,2.87,2.58,5.61,5.61,0,0,1,1.05,3.18,2.85,2.85,0,0,1-.5,1.81,2.47,2.47,0,0,1-1.59.8,2.49,2.49,0,0,0-.93.26.46.46,0,0,0-.12.37ZM461,82l2,1.14v-.06a.92.92,0,0,1,.3-.75A2.62,2.62,0,0,1,464.4,82a2,2,0,0,0,1.29-.63,2.39,2.39,0,0,0,.39-1.51,5.09,5.09,0,0,0-1-2.91,8.13,8.13,0,0,0-2.71-2.43,6.85,6.85,0,0,0-3.68-1.07l.94,2.67h.07a5.37,5.37,0,0,1,2.69.67,3,3,0,0,1,.86.75,1.56,1.56,0,0,1,.35.93,1,1,0,0,1-.37.89,2.46,2.46,0,0,1-1,.36,1.37,1.37,0,0,0-1,.46,2,2,0,0,0-.28,1.19Z" transform="translate(-244.16 -41.44)"/><path class="cls-1" d="M459.37,80.93v-.79a2.3,2.3,0,0,1,.32-1.34,1.63,1.63,0,0,1,1.13-.56,2,2,0,0,0,.93-.31.83.83,0,0,0,.28-.7,1.3,1.3,0,0,0-.3-.78,2.61,2.61,0,0,0-.79-.68,5.07,5.07,0,0,0-2.81-.64L457,72a7.08,7.08,0,0,1,4.14,1.08A8.52,8.52,0,0,1,464,75.58a5.39,5.39,0,0,1,1,3,2.62,2.62,0,0,1-.45,1.67,2.24,2.24,0,0,1-1.44.71,2.54,2.54,0,0,0-1.05.31.68.68,0,0,0-.21.56v.47ZM459,84c0-.57.14-.92.42-1.06s.7-.06,1.26.26a3.43,3.43,0,0,1,1.22,1.17,3,3,0,0,1,.42,1.55c0,.56-.14.9-.44,1a1.35,1.35,0,0,1-1.2-.24,3.41,3.41,0,0,1-1.24-1.17A2.91,2.91,0,0,1,459,84Z" transform="translate(-244.16 -41.44)"/><path class="cls-3" d="M513.05,173.63l-5.43,3h0a11.48,11.48,0,0,1,7.58,7.68l3.92,13.17a9.26,9.26,0,0,0,13.44,5.41l16.31-9.24Z" transform="translate(-244.16 -41.44)"/><path class="cls-1" d="M528,204.76a9.67,9.67,0,0,1-3.69-.73,9.81,9.81,0,0,1-5.78-6.34l-3.93-13.17a10.86,10.86,0,0,0-7.17-7.26l-.35-.11-.17-.81.4-.23,5.73-3.2,37.1,20.77-17.27,9.79A9.94,9.94,0,0,1,528,204.76Zm-18.92-28.21a12.07,12.07,0,0,1,6.71,7.61l3.93,13.18a8.63,8.63,0,0,0,12.53,5l15.35-8.69-34.56-19.35Z" transform="translate(-244.16 -41.44)"/><polygon class="cls-2" points="291.49 154.9 265.37 139.82 268.34 138.11 294.46 153.19 291.49 154.9"/><path class="cls-1" d="M535.65,197.06l-.31-.18-27.06-15.62,4.22-2.43.31.18,27.06,15.62Zm-24.88-15.8,24.88,14.36,1.73-1L512.5,180.27Z" transform="translate(-244.16 -41.44)"/><polygon class="cls-3" points="265.37 135.98 254.03 129.44 254.03 140.64 265.08 138.96 265.37 135.98"/><path class="cls-1" d="M497.56,182.81v-13l12.63,7.28-.37,3.86ZM498.81,172v9.4l9.86-1.51.2-2.09Z" transform="translate(-244.16 -41.44)"/><path class="cls-3" d="M498.19,188.3,522,202.1a.54.54,0,0,0,.76-.69l-7.54-17.07a11.5,11.5,0,0,0-16.79-6.67l-.26.15Z" transform="translate(-244.16 -41.44)"/><path class="cls-1" d="M522.3,202.8a1.24,1.24,0,0,1-.59-.16l-24.15-14V177.47l.57-.33a12.12,12.12,0,0,1,17.71,7l7.51,17a1.15,1.15,0,0,1-.28,1.34A1.2,1.2,0,0,1,522.3,202.8Zm-23.49-14.86,23.3,13.49-7.44-16.84a10.89,10.89,0,0,0-15.86-6.41Z" transform="translate(-244.16 -41.44)"/><rect class="cls-1" x="89.55" y="33.34" width="1.08" height="27.95"/><rect class="cls-1" x="89.55" y="21.87" width="1.08" height="9.78"/><rect class="cls-1" x="90.09" y="107.56" width="1.08" height="9.78"/><path class="cls-1" d="M501.08,167.31h1.08v-30.8s.74-10-8.65-14.21l-.44,1c8.69,3.88,8,12.8,8,13.17Z" transform="translate(-244.16 -41.44)"/><path class="cls-1" d="M367.59,198.3l5.87.12a.6.6,0,0,0,.29-.08l22.46-13a5.18,5.18,0,0,1,4.65-.2l50.93,29.41.11,0,16.9,5.68a.57.57,0,0,1,.39.53v4.25c.14.6-.23,1.27-1.11,1.77L440,243.08a5.2,5.2,0,0,1-4.66.19l-67.56-39a1.39,1.39,0,0,1-.79-1.18v-4.23A.56.56,0,0,1,367.59,198.3Z" transform="translate(-244.16 -41.44)"/><path class="cls-1" d="M435.09,243.74l-67.55-39a1.86,1.86,0,0,1-1.06-1.64v-4.23a1.07,1.07,0,0,1,.33-.79.92.92,0,0,1,.79-.31l5.88.12,22.46-13a5.68,5.68,0,0,1,5.19-.19l50.94,29.41L469,219.81a1.1,1.1,0,0,1,.75,1v4.2a2.28,2.28,0,0,1-1.38,2.29l-28.07,16.2a5.84,5.84,0,0,1-2.89.74A4.71,4.71,0,0,1,435.09,243.74Zm-38.62-57.9-22.45,13a.86.86,0,0,1-.58.14l-5.86-.12v-.53l0,4.79a.89.89,0,0,0,.52.71l67.56,39a4.66,4.66,0,0,0,4.12-.2l28.06-16.2c.62-.36.94-.81.86-1.18l0-4.4-16.91-5.68-.19-.09-50.94-29.41a3.62,3.62,0,0,0-1.75-.39A5,5,0,0,0,396.47,185.84Z" transform="translate(-244.16 -41.44)"/><path class="cls-2" d="M367.8,199.61l67.56,39a5.2,5.2,0,0,0,4.66-.2l28.06-16.2c1.38-.8,1.53-2,.34-2.69l-67.56-39a5.18,5.18,0,0,0-4.65.19l-28.07,16.2C366.76,197.72,366.61,198.92,367.8,199.61Z" transform="translate(-244.16 -41.44)"/><path class="cls-1" d="M435.09,239.08l-67.55-39a1.9,1.9,0,0,1-1.08-1.64,2.45,2.45,0,0,1,1.41-2l28.07-16.21a5.71,5.71,0,0,1,5.19-.19l67.56,39a1.9,1.9,0,0,1,1.07,1.63,2.41,2.41,0,0,1-1.41,2l-28.07,16.21a5.94,5.94,0,0,1-2.89.73A4.71,4.71,0,0,1,435.09,239.08Zm-38.62-57.89-28.06,16.2c-.55.31-.87.71-.87,1.05a.93.93,0,0,0,.53.71l67.56,39a4.69,4.69,0,0,0,4.12-.19l28.06-16.21c.55-.31.87-.71.87-1.05a.9.9,0,0,0-.53-.7l-67.56-39a3.62,3.62,0,0,0-1.75-.39A4.87,4.87,0,0,0,396.47,181.19Z" transform="translate(-244.16 -41.44)"/><rect class="cls-3" x="192.82" y="197.96" width="0.83" height="4"/><rect class="cls-3" x="221.57" y="182.01" width="0.83" height="4"/><rect class="cls-3" x="125.46" y="159.59" width="0.83" height="4"/><path class="cls-2" d="M339.17,45.14a.14.14,0,0,1,0-.22l5-2.78a.91.91,0,0,1,1.06,0l151.43,87.42a3.55,3.55,0,0,1,1.48,2.83V248.29a1.38,1.38,0,0,1-.44,1.14l-5.28,2.93L487.21,246l2.07-.9L345.28,162a3.55,3.55,0,0,1-1.48-2.83V51.42Z" transform="translate(-244.16 -41.44)"/><path class="cls-1" d="M486.34,245.82l1.75-.77L345,162.44a4.07,4.07,0,0,1-1.75-3.29V51.59l-4.53-6.13a.73.73,0,0,1-.12-.56.71.71,0,0,1,.34-.45l4.94-2.74a1.45,1.45,0,0,1,1.66,0L497,129.12a4.08,4.08,0,0,1,1.75,3.29V248.29a1.88,1.88,0,0,1-.72,1.61l-5.67,3.15ZM344.48,42.61l-4.62,2.56,4.47,6.07V159.15a3,3,0,0,0,1.22,2.36l144.92,83.67-2.39,1,4.52,5.44,4.83-2.67a.9.9,0,0,0,.22-.71V132.41a3,3,0,0,0-1.21-2.36L345,42.62a.59.59,0,0,0-.3-.09A.38.38,0,0,0,344.48,42.61Z" transform="translate(-244.16 -41.44)"/><path class="cls-1" d="M340,164.91l151.44,87.43c.81.48,1.48,0,1.48-1.12V135.35a3.57,3.57,0,0,0-1.48-2.83L340,45.09c-.81-.47-1.48,0-1.48,1.12V162.09A3.55,3.55,0,0,0,340,164.91Z" transform="translate(-244.16 -41.44)"/><path class="cls-1" d="M491.15,252.81,339.72,165.38a4.08,4.08,0,0,1-1.75-3.29V46.21a1.82,1.82,0,0,1,.78-1.66,1.43,1.43,0,0,1,1.5.08l151.43,87.43a4.07,4.07,0,0,1,1.75,3.29V251.22a1.84,1.84,0,0,1-.78,1.67,1.34,1.34,0,0,1-.65.17A1.69,1.69,0,0,1,491.15,252.81ZM339.28,45.48c-.11.07-.24.3-.24.73V162.09a3,3,0,0,0,1.21,2.36l151.43,87.43c.09.05.31.16.44.08s.24-.3.24-.74V135.35a3,3,0,0,0-1.21-2.36L339.72,45.56a.71.71,0,0,0-.32-.11Z" transform="translate(-244.16 -41.44)"/><path class="cls-3" d="M340.2,162.75l151,87.18c.24.13.44,0,.44-.33V134.78a1,1,0,0,0-.44-.83l-151-87.17c-.24-.14-.43,0-.43.33V161.92A1,1,0,0,0,340.2,162.75Z" transform="translate(-244.16 -41.44)"/><path class="cls-1" d="M490.93,250.39l-151-87.17h0a1.59,1.59,0,0,1-.7-1.3V47.11a.91.91,0,0,1,.42-.82.83.83,0,0,1,.82,0l151,87.18a1.55,1.55,0,0,1,.71,1.29V249.6a.89.89,0,0,1-.42.81.76.76,0,0,1-.38.11A.9.9,0,0,1,490.93,250.39ZM340.31,161.92a.61.61,0,0,0,.16.37l150.62,87V134.78a.55.55,0,0,0-.16-.36l-150.62-87Z" transform="translate(-244.16 -41.44)"/><path class="cls-1" d="M338.5,162.22V155.6l154.4,89.13v6.63c0,1-.72,1.43-1.59.92L340.09,165A3.54,3.54,0,0,1,338.5,162.22Z" transform="translate(-244.16 -41.44)"/><path class="cls-1" d="M491,252.74l-151.21-87.3a4,4,0,0,1-1.86-3.22v-7.56l155.19,89.61.27.15v6.94a1.65,1.65,0,0,1-.73,1.5,1.46,1.46,0,0,1-.68.17A1.87,1.87,0,0,1,491,252.74ZM339,156.53v5.69a3,3,0,0,0,1.32,2.29l151.21,87.3c.25.15.47.19.59.12a.69.69,0,0,0,.2-.57V245Z" transform="translate(-244.16 -41.44)"/><rect class="cls-3" x="415.29" y="193.11" width="0.83" height="22.58" transform="translate(-213.42 420.63) rotate(-59.98)"/><rect class="cls-1" x="492.57" y="131.74" width="6.05" height="1.07" transform="translate(-241.55 232.53) rotate(-30.98)"/><rect class="cls-1" x="348.13" y="47.96" width="6.05" height="1.07" transform="translate(-219.03 146.22) rotate(-30.98)"/><rect class="cls-1" x="492.57" y="241.52" width="6.05" height="1.08" transform="translate(-298.07 248.16) rotate(-30.98)"/><polygon class="cls-3" points="212.45 191.87 212.86 191.15 209.58 189.24 209.17 189.96 212.45 191.87"/><path class="cls-1" d="M437.67,236.61a3,3,0,0,0,1.61-.46l5.88-3.62-.57-.92-5.87,3.63a2,2,0,0,1-2,0l-58.17-33.18L378,203l58.17,33.18A3.07,3.07,0,0,0,437.67,236.61Z" transform="translate(-244.16 -41.44)"/><path class="cls-1" d="M376.31,202.06l.52-.94-4.31-2.4a.37.37,0,0,1-.19-.32.38.38,0,0,1,.18-.32l6-3.52-.55-.93-6,3.52a1.45,1.45,0,0,0,0,2.51Z" transform="translate(-244.16 -41.44)"/><rect class="cls-1" x="492.86" y="237.53" width="6.05" height="1.08" transform="translate(-295.97 247.77) rotate(-30.98)"/><rect class="cls-1" x="351.47" y="49.84" width="6.05" height="1.07" transform="translate(-219.52 148.24) rotate(-30.98)"/><rect class="cls-1" x="492.84" y="137.25" width="6.05" height="1.07" transform="translate(-244.35 233.45) rotate(-30.98)"/><path class="cls-1" d="M435.18,205.18a5.45,5.45,0,0,0,1.48,2.58s0,0,0,0c-.2,0-1.32-.14-1.48.87,0,0,0,0,0,0a5.39,5.39,0,0,0-1.49-2.58s0,0,0,0c.2,0,1.33.14,1.49-.87C435.16,205.15,435.18,205.16,435.18,205.18Z" transform="translate(-244.16 -41.44)"/><path class="cls-1" d="M430.88,202.69a5.4,5.4,0,0,0,1.48,2.58s0,0,0,0c-.2,0-1.32-.15-1.48.86,0,0,0,0,0,0a5.39,5.39,0,0,0-1.49-2.58s0,0,0,0c.2,0,1.33.15,1.49-.86C430.86,202.66,430.87,202.67,430.88,202.69Z" transform="translate(-244.16 -41.44)"/><path class="cls-1" d="M426.57,200.21a5.53,5.53,0,0,0,1.49,2.58s0,0,0,0c-.2,0-1.32-.14-1.49.87,0,0,0,0,0,0a5.39,5.39,0,0,0-1.49-2.58s0,0,0,0c.2,0,1.33.14,1.49-.87C426.55,200.18,426.57,200.19,426.57,200.21Z" transform="translate(-244.16 -41.44)"/><path class="cls-1" d="M422.27,197.72a5.4,5.4,0,0,0,1.48,2.58s0,0,0,0c-.2,0-1.32-.15-1.48.86,0,0,0,0,0,0a5.39,5.39,0,0,0-1.5-2.58s0,0,0,0c.21,0,1.33.15,1.5-.86C422.25,197.7,422.27,197.71,422.27,197.72Z" transform="translate(-244.16 -41.44)"/><path class="cls-1" d="M418,195.24a5.4,5.4,0,0,0,1.48,2.58s0,0,0,0c-.2,0-1.32-.14-1.48.87,0,0,0,0,0,0a5.45,5.45,0,0,0-1.49-2.58s0,0,0,0c.2,0,1.33.15,1.49-.87C418,195.21,418,195.22,418,195.24Z" transform="translate(-244.16 -41.44)"/><path class="cls-1" d="M413.66,192.75a5.48,5.48,0,0,0,1.48,2.58s0,0,0,0c-.2,0-1.31-.15-1.48.86,0,0,0,0,0,0a5.39,5.39,0,0,0-1.49-2.58s0,0,0,0c.2,0,1.33.15,1.49-.86C413.64,192.73,413.66,192.74,413.66,192.75Z" transform="translate(-244.16 -41.44)"/><path class="cls-1" d="M409.36,190.27a5.4,5.4,0,0,0,1.48,2.58s0,0,0,0c-.2,0-1.32-.14-1.48.87,0,0,0,0,0,0a5.52,5.52,0,0,0-1.5-2.58s0,0,0,0c.2,0,1.33.15,1.5-.86C409.34,190.24,409.36,190.25,409.36,190.27Z" transform="translate(-244.16 -41.44)"/><path class="cls-1" d="M405.05,187.78a5.47,5.47,0,0,0,1.49,2.58s0,0,0,0c-.2,0-1.32-.15-1.49.86,0,0,0,0,0,0a5.39,5.39,0,0,0-1.49-2.58s0,0,0,0c.2,0,1.33.15,1.49-.86C405,187.76,405.05,187.77,405.05,187.78Z" transform="translate(-244.16 -41.44)"/><path class="cls-1" d="M400.75,185.3a5.4,5.4,0,0,0,1.48,2.58s0,0,0,0c-.2,0-1.32-.14-1.48.87,0,0,0,0,0,0a5.44,5.44,0,0,0-1.49-2.59s0,0,0,0c.2,0,1.33.15,1.49-.86C400.73,185.27,400.75,185.28,400.75,185.3Z" transform="translate(-244.16 -41.44)"/><path class="cls-1" d="M396.45,182.81a5.4,5.4,0,0,0,1.48,2.58s0,0,0,0c-.2,0-1.32-.15-1.48.86,0,0,0,0,0,0a5.47,5.47,0,0,0-1.5-2.58s0,0,0,0c.2,0,1.33.15,1.5-.86C396.43,182.79,396.44,182.8,396.45,182.81Z" transform="translate(-244.16 -41.44)"/><path class="cls-1" d="M478.22,230a5.4,5.4,0,0,0,1.48,2.58s0,0,0,0c-.2,0-1.32-.15-1.48.86,0,0,0,0,0,0a5.47,5.47,0,0,0-1.5-2.58s0,0,0,0c.2,0,1.33.15,1.5-.86C478.2,230,478.22,230,478.22,230Z" transform="translate(-244.16 -41.44)"/><path class="cls-1" d="M473.91,227.54a5.47,5.47,0,0,0,1.49,2.58s0,0,0,0c-.2,0-1.32-.14-1.49.87,0,0,0,0,0,0a5.49,5.49,0,0,0-1.49-2.59s0,0,0,0c.2,0,1.33.15,1.49-.86C473.89,227.51,473.91,227.52,473.91,227.54Z" transform="translate(-244.16 -41.44)"/><path class="cls-1" d="M469.61,225.05a5.4,5.4,0,0,0,1.48,2.58s0,0,0,0c-.2,0-1.32-.15-1.48.86,0,0,0,0,0,0a5.39,5.39,0,0,0-1.5-2.58s0,0,0,0c.21,0,1.33.15,1.5-.86C469.59,225,469.61,225,469.61,225.05Z" transform="translate(-244.16 -41.44)"/><path class="cls-1" d="M465.31,222.57a5.4,5.4,0,0,0,1.48,2.58s0,0,0,0c-.2,0-1.32-.14-1.48.87,0,0,0,0,0,0a5.49,5.49,0,0,0-1.49-2.59s0,0,0,0c.2,0,1.33.15,1.49-.86C465.29,222.54,465.3,222.55,465.31,222.57Z" transform="translate(-244.16 -41.44)"/><path class="cls-1" d="M461,220.09a5.57,5.57,0,0,0,1.48,2.57s0,0,0,0c-.19,0-1.31-.15-1.48.86,0,0,0,0,0,0a5.39,5.39,0,0,0-1.49-2.58s0,0,0,0c.2,0,1.33.15,1.49-.86C461,220.06,461,220.07,461,220.09Z" transform="translate(-244.16 -41.44)"/><path class="cls-1" d="M456.7,217.6a5.4,5.4,0,0,0,1.48,2.58s0,0,0,0c-.2,0-1.32-.14-1.48.87,0,0,0,0,0,0a5.49,5.49,0,0,0-1.5-2.59s0,0,0,0c.2,0,1.33.15,1.5-.86C456.68,217.57,456.7,217.58,456.7,217.6Z" transform="translate(-244.16 -41.44)"/><path class="cls-1" d="M452.4,215.12a5.4,5.4,0,0,0,1.48,2.57s0,0,0,0c-.2,0-1.32-.15-1.48.87,0,0,0,0,0,0a5.39,5.39,0,0,0-1.49-2.58s0,0,0,0c.2,0,1.33.15,1.49-.86C452.38,215.09,452.39,215.1,452.4,215.12Z" transform="translate(-244.16 -41.44)"/><path class="cls-1" d="M448.09,212.63a5.48,5.48,0,0,0,1.48,2.58s0,0,0,0c-.2,0-1.31-.15-1.48.86,0,0,0,0,0,0a5.39,5.39,0,0,0-1.49-2.58s0,0,0,0c.2,0,1.33.15,1.49-.86C448.07,212.6,448.09,212.61,448.09,212.63Z" transform="translate(-244.16 -41.44)"/><path class="cls-1" d="M443.79,210.15a5.45,5.45,0,0,0,1.48,2.58s0,0,0,0c-.2,0-1.32-.15-1.48.87,0,0,0,0,0,0a5.47,5.47,0,0,0-1.5-2.58s0,0,0,0c.2,0,1.33.15,1.5-.86C443.77,210.12,443.79,210.13,443.79,210.15Z" transform="translate(-244.16 -41.44)"/><path class="cls-1" d="M439.48,207.66a5.47,5.47,0,0,0,1.49,2.58s0,0,0,0c-.2,0-1.32-.15-1.49.86,0,0,0,0,0,0a5.39,5.39,0,0,0-1.49-2.58s0,0,0,0c.2,0,1.33.15,1.49-.86C439.46,207.63,439.48,207.64,439.48,207.66Z" transform="translate(-244.16 -41.44)"/><path class="cls-1" d="M435.18,200.19a5.45,5.45,0,0,0,1.48,2.58s0,0,0,0c-.2,0-1.32-.14-1.48.87,0,0,0,0,0,0a5.39,5.39,0,0,0-1.49-2.58s0,0,0,0c.2,0,1.33.14,1.49-.87C435.16,200.16,435.18,200.17,435.18,200.19Z" transform="translate(-244.16 -41.44)"/><path class="cls-1" d="M430.88,197.7a5.4,5.4,0,0,0,1.48,2.58s0,0,0,0c-.2,0-1.32-.15-1.48.86,0,0,0,0,0,0a5.39,5.39,0,0,0-1.49-2.58s0,0,0,0c.2,0,1.33.15,1.49-.86C430.86,197.67,430.87,197.68,430.88,197.7Z" transform="translate(-244.16 -41.44)"/><path class="cls-1" d="M426.57,195.22a5.53,5.53,0,0,0,1.49,2.58s0,0,0,0c-.2,0-1.32-.14-1.49.87,0,0,0,0,0,0a5.39,5.39,0,0,0-1.49-2.58s0,0,0,0c.2,0,1.33.14,1.49-.87C426.55,195.19,426.57,195.2,426.57,195.22Z" transform="translate(-244.16 -41.44)"/><path class="cls-1" d="M422.27,192.73a5.4,5.4,0,0,0,1.48,2.58s0,0,0,0c-.2,0-1.32-.15-1.48.86,0,0,0,0,0,0a5.39,5.39,0,0,0-1.5-2.58s0,0,0,0c.21,0,1.33.15,1.5-.86C422.25,192.7,422.27,192.72,422.27,192.73Z" transform="translate(-244.16 -41.44)"/><path class="cls-1" d="M418,190.25a5.45,5.45,0,0,0,1.48,2.58s0,0,0,0c-.2,0-1.32-.14-1.48.87,0,0,0,0,0,0a5.39,5.39,0,0,0-1.49-2.58s0,0,0,0c.2,0,1.33.15,1.49-.87C418,190.22,418,190.23,418,190.25Z" transform="translate(-244.16 -41.44)"/><path class="cls-1" d="M413.66,187.76a5.48,5.48,0,0,0,1.48,2.58s0,0,0,0c-.2,0-1.31-.15-1.48.86,0,0,0,0,0,0a5.39,5.39,0,0,0-1.49-2.58s0,0,0,0c.2,0,1.33.15,1.49-.86Z" transform="translate(-244.16 -41.44)"/><path class="cls-1" d="M409.36,185.28a5.4,5.4,0,0,0,1.48,2.58s0,0,0,0c-.2,0-1.32-.14-1.48.87,0,0,0,0,0,0a5.52,5.52,0,0,0-1.5-2.58s0,0,0,0c.2,0,1.33.15,1.5-.87C409.34,185.25,409.36,185.26,409.36,185.28Z" transform="translate(-244.16 -41.44)"/><path class="cls-1" d="M405.05,182.79a5.47,5.47,0,0,0,1.49,2.58s0,0,0,0c-.2,0-1.32-.15-1.49.86,0,0,0,0,0,0a5.39,5.39,0,0,0-1.49-2.58s0,0,0,0c.2,0,1.33.15,1.49-.86Z" transform="translate(-244.16 -41.44)"/><path class="cls-1" d="M400.75,180.31a5.4,5.4,0,0,0,1.48,2.58s0,0,0,0c-.2,0-1.32-.14-1.48.87h0a5.44,5.44,0,0,0-1.49-2.59s0,0,0,0c.2,0,1.33.15,1.49-.86C400.73,180.28,400.75,180.29,400.75,180.31Z" transform="translate(-244.16 -41.44)"/><path class="cls-1" d="M396.45,177.82a5.4,5.4,0,0,0,1.48,2.58s0,0,0,0c-.2,0-1.32-.15-1.48.86,0,0,0,0,0,0a5.47,5.47,0,0,0-1.5-2.58s0,0,0,0c.2,0,1.33.15,1.5-.86Z" transform="translate(-244.16 -41.44)"/><path class="cls-1" d="M478.22,225a5.4,5.4,0,0,0,1.48,2.58s0,0,0,0c-.2,0-1.32-.15-1.48.86,0,0,0,0,0,0a5.47,5.47,0,0,0-1.5-2.58s0,0,0,0c.2,0,1.33.15,1.5-.86C478.2,225,478.22,225,478.22,225Z" transform="translate(-244.16 -41.44)"/><path class="cls-1" d="M473.91,222.55a5.47,5.47,0,0,0,1.49,2.58s0,0,0,0c-.2,0-1.32-.14-1.49.87,0,0,0,0,0,0a5.49,5.49,0,0,0-1.49-2.59s0,0,0,0c.2,0,1.33.15,1.49-.86C473.89,222.52,473.91,222.53,473.91,222.55Z" transform="translate(-244.16 -41.44)"/><path class="cls-1" d="M469.61,220.06a5.4,5.4,0,0,0,1.48,2.58s0,0,0,0c-.2,0-1.32-.15-1.48.86,0,0,0,0,0,0a5.39,5.39,0,0,0-1.5-2.58s0,0,0,0c.21,0,1.33.15,1.5-.86C469.59,220,469.61,220.05,469.61,220.06Z" transform="translate(-244.16 -41.44)"/><path class="cls-1" d="M465.31,217.58a5.4,5.4,0,0,0,1.48,2.58s0,0,0,0c-.2,0-1.32-.14-1.48.87,0,0,0,0,0,0a5.49,5.49,0,0,0-1.49-2.59s0,0,0,0c.2,0,1.33.15,1.49-.86C465.29,217.55,465.3,217.56,465.31,217.58Z" transform="translate(-244.16 -41.44)"/><path class="cls-1" d="M461,215.09a5.56,5.56,0,0,0,1.48,2.58s0,0,0,0c-.19,0-1.31-.15-1.48.86,0,0,0,0,0,0a5.39,5.39,0,0,0-1.49-2.58s0,0,0,0c.2,0,1.33.15,1.49-.86C461,215.07,461,215.08,461,215.09Z" transform="translate(-244.16 -41.44)"/><path class="cls-1" d="M456.7,212.61a5.4,5.4,0,0,0,1.48,2.58s0,0,0,0c-.2,0-1.32-.14-1.48.87,0,0,0,0,0,0a5.49,5.49,0,0,0-1.5-2.59s0,0,0,0c.2,0,1.33.15,1.5-.86C456.68,212.58,456.7,212.59,456.7,212.61Z" transform="translate(-244.16 -41.44)"/><path class="cls-1" d="M452.4,210.13a5.4,5.4,0,0,0,1.48,2.57s0,0,0,0c-.2,0-1.32-.15-1.48.87,0,0,0,0,0,0a5.39,5.39,0,0,0-1.49-2.58s0,0,0,0c.2,0,1.33.15,1.49-.86C452.38,210.1,452.39,210.11,452.4,210.13Z" transform="translate(-244.16 -41.44)"/><path class="cls-1" d="M448.09,207.64a5.48,5.48,0,0,0,1.48,2.58s0,0,0,0c-.2,0-1.31-.15-1.48.86,0,0,0,0,0,0a5.49,5.49,0,0,0-1.49-2.59s0,0,0,0c.2,0,1.33.15,1.49-.86C448.07,207.61,448.09,207.62,448.09,207.64Z" transform="translate(-244.16 -41.44)"/><path class="cls-1" d="M443.79,205.16a5.45,5.45,0,0,0,1.48,2.58s0,0,0,0c-.2,0-1.32-.15-1.48.87,0,0,0,0,0,0a5.47,5.47,0,0,0-1.5-2.58s0,0,0,0c.2,0,1.33.15,1.5-.86C443.77,205.13,443.79,205.14,443.79,205.16Z" transform="translate(-244.16 -41.44)"/><path class="cls-1" d="M439.48,202.67a5.47,5.47,0,0,0,1.49,2.58s0,0,0,0c-.2,0-1.32-.15-1.49.86,0,0,0,0,0,0a5.39,5.39,0,0,0-1.49-2.58s0,0,0,0c.2,0,1.33.15,1.49-.86C439.46,202.64,439.48,202.65,439.48,202.67Z" transform="translate(-244.16 -41.44)"/><path class="cls-1" d="M435.18,195.2a5.45,5.45,0,0,0,1.48,2.58s0,0,0,0c-.2,0-1.32-.14-1.48.87,0,0,0,0,0,0a5.39,5.39,0,0,0-1.49-2.58s0,0,0,0c.2,0,1.33.14,1.49-.87C435.16,195.17,435.18,195.18,435.18,195.2Z" transform="translate(-244.16 -41.44)"/><path class="cls-1" d="M430.88,192.71a5.4,5.4,0,0,0,1.48,2.58s0,0,0,0c-.2,0-1.32-.15-1.48.86,0,0,0,0,0,0a5.39,5.39,0,0,0-1.49-2.58s0,0,0,0c.2,0,1.33.15,1.49-.86C430.86,192.68,430.87,192.69,430.88,192.71Z" transform="translate(-244.16 -41.44)"/><path class="cls-1" d="M426.57,190.23a5.53,5.53,0,0,0,1.49,2.58s0,0,0,0c-.2,0-1.32-.14-1.49.87,0,0,0,0,0,0a5.39,5.39,0,0,0-1.49-2.58s0,0,0,0c.2,0,1.33.14,1.49-.87C426.55,190.2,426.57,190.21,426.57,190.23Z" transform="translate(-244.16 -41.44)"/><path class="cls-1" d="M422.27,187.74a5.4,5.4,0,0,0,1.48,2.58s0,0,0,0c-.2,0-1.32-.15-1.48.86,0,0,0,0,0,0a5.39,5.39,0,0,0-1.5-2.58s0,0,0,0c.21,0,1.33.15,1.5-.86C422.25,187.71,422.27,187.72,422.27,187.74Z" transform="translate(-244.16 -41.44)"/><path class="cls-1" d="M418,185.26a5.45,5.45,0,0,0,1.48,2.58s0,0,0,0c-.2,0-1.32-.14-1.48.87,0,0,0,0,0,0a5.39,5.39,0,0,0-1.49-2.58s0,0,0,0c.2,0,1.33.15,1.49-.87C418,185.23,418,185.24,418,185.26Z" transform="translate(-244.16 -41.44)"/><path class="cls-1" d="M413.66,182.77a5.48,5.48,0,0,0,1.48,2.58s0,0,0,0c-.2,0-1.31-.15-1.48.86,0,0,0,0,0,0a5.39,5.39,0,0,0-1.49-2.58s0,0,0,0c.2,0,1.33.15,1.49-.86C413.64,182.75,413.66,182.76,413.66,182.77Z" transform="translate(-244.16 -41.44)"/><path class="cls-1" d="M409.36,180.29a5.4,5.4,0,0,0,1.48,2.58s0,0,0,0c-.2,0-1.32-.14-1.48.87,0,0,0,0,0,0a5.52,5.52,0,0,0-1.5-2.58s0,0,0,0c.2,0,1.33.15,1.5-.87C409.34,180.26,409.36,180.27,409.36,180.29Z" transform="translate(-244.16 -41.44)"/><path class="cls-1" d="M405.05,177.8a5.47,5.47,0,0,0,1.49,2.58s0,0,0,0c-.2,0-1.32-.15-1.49.86,0,0,0,0,0,0a5.39,5.39,0,0,0-1.49-2.58s0,0,0,0c.2,0,1.33.15,1.49-.86C405,177.78,405.05,177.79,405.05,177.8Z" transform="translate(-244.16 -41.44)"/><path class="cls-1" d="M400.75,175.32a5.4,5.4,0,0,0,1.48,2.58s0,0,0,0c-.2,0-1.32-.14-1.48.87,0,0,0,0,0,0a5.45,5.45,0,0,0-1.49-2.58s0,0,0,0c.2,0,1.33.15,1.49-.86C400.73,175.29,400.75,175.3,400.75,175.32Z" transform="translate(-244.16 -41.44)"/><path class="cls-1" d="M396.45,172.83a5.4,5.4,0,0,0,1.48,2.58s0,0,0,0c-.2,0-1.32-.15-1.48.86,0,0,0,0,0,0a5.47,5.47,0,0,0-1.5-2.58s0,0,0,0c.2,0,1.33.15,1.5-.86Z" transform="translate(-244.16 -41.44)"/><path class="cls-1" d="M478.22,220a5.4,5.4,0,0,0,1.48,2.58s0,0,0,0c-.2,0-1.32-.15-1.48.86,0,0,0,0,0,0a5.47,5.47,0,0,0-1.5-2.58s0,0,0,0c.2,0,1.33.15,1.5-.86Z" transform="translate(-244.16 -41.44)"/><path class="cls-1" d="M473.91,217.56a5.47,5.47,0,0,0,1.49,2.58s0,0,0,0c-.2,0-1.32-.14-1.49.87h0a5.49,5.49,0,0,0-1.49-2.59s0,0,0,0c.2,0,1.33.15,1.49-.86C473.89,217.53,473.91,217.54,473.91,217.56Z" transform="translate(-244.16 -41.44)"/><path class="cls-1" d="M469.61,215.07a5.4,5.4,0,0,0,1.48,2.58s0,0,0,0c-.2,0-1.32-.15-1.48.86,0,0,0,0,0,0a5.39,5.39,0,0,0-1.5-2.58s0,0,0,0c.21,0,1.33.15,1.5-.86Z" transform="translate(-244.16 -41.44)"/><path class="cls-1" d="M465.31,212.59a5.4,5.4,0,0,0,1.48,2.58s0,0,0,0c-.2,0-1.32-.14-1.48.87,0,0,0,0,0,0a5.49,5.49,0,0,0-1.49-2.59s0,0,0,0c.2,0,1.33.15,1.49-.86C465.29,212.56,465.3,212.57,465.31,212.59Z" transform="translate(-244.16 -41.44)"/><path class="cls-1" d="M461,210.1a5.56,5.56,0,0,0,1.48,2.58s0,0,0,0c-.19,0-1.31-.15-1.48.86,0,0,0,0,0,0a5.39,5.39,0,0,0-1.49-2.58s0,0,0,0c.2,0,1.33.15,1.49-.86Z" transform="translate(-244.16 -41.44)"/><path class="cls-1" d="M456.7,207.62a5.4,5.4,0,0,0,1.48,2.58s0,0,0,0c-.2,0-1.32-.14-1.48.87h0a5.49,5.49,0,0,0-1.5-2.59s0,0,0,0c.2,0,1.33.15,1.5-.86C456.68,207.59,456.7,207.6,456.7,207.62Z" transform="translate(-244.16 -41.44)"/><path class="cls-1" d="M452.4,205.14a5.4,5.4,0,0,0,1.48,2.57s0,0,0,0c-.2,0-1.32-.15-1.48.86,0,0,0,0,0,0a5.39,5.39,0,0,0-1.49-2.58s0,0,0,0c.2,0,1.33.15,1.49-.86C452.38,205.11,452.39,205.12,452.4,205.14Z" transform="translate(-244.16 -41.44)"/><path class="cls-1" d="M448.09,202.65a5.48,5.48,0,0,0,1.48,2.58s0,0,0,0c-.2,0-1.31-.15-1.48.86h0a5.49,5.49,0,0,0-1.49-2.59s0,0,0,0c.2,0,1.33.15,1.49-.86C448.07,202.62,448.09,202.63,448.09,202.65Z" transform="translate(-244.16 -41.44)"/><path class="cls-1" d="M443.79,200.17a5.51,5.51,0,0,0,1.48,2.58s0,0,0,0c-.2,0-1.32-.15-1.48.87,0,0,0,0,0,0a5.47,5.47,0,0,0-1.5-2.58s0,0,0,0c.2,0,1.33.15,1.5-.86C443.77,200.14,443.79,200.15,443.79,200.17Z" transform="translate(-244.16 -41.44)"/><path class="cls-1" d="M439.48,197.68a5.47,5.47,0,0,0,1.49,2.58s0,0,0,0c-.2,0-1.32-.15-1.49.86,0,0,0,0,0,0a5.39,5.39,0,0,0-1.49-2.58s0,0,0,0c.2,0,1.33.15,1.49-.86C439.46,197.65,439.48,197.66,439.48,197.68Z" transform="translate(-244.16 -41.44)"/><path class="cls-1" d="M435.18,190.21a5.45,5.45,0,0,0,1.48,2.58s0,0,0,0c-.2,0-1.32-.15-1.48.87,0,0,0,0,0,0a5.39,5.39,0,0,0-1.49-2.58s0,0,0,0c.2,0,1.33.15,1.49-.86C435.16,190.18,435.18,190.19,435.18,190.21Z" transform="translate(-244.16 -41.44)"/><path class="cls-1" d="M430.88,187.72a5.4,5.4,0,0,0,1.48,2.58s0,0,0,0c-.2,0-1.32-.15-1.48.86,0,0,0,0,0,0a5.39,5.39,0,0,0-1.49-2.58s0,0,0,0c.2,0,1.33.15,1.49-.86C430.86,187.69,430.87,187.7,430.88,187.72Z" transform="translate(-244.16 -41.44)"/><path class="cls-1" d="M426.57,185.24a5.53,5.53,0,0,0,1.49,2.58s0,0,0,0c-.2,0-1.32-.14-1.49.87,0,0,0,0,0,0a5.39,5.39,0,0,0-1.49-2.58s0,0,0,0c.2,0,1.33.14,1.49-.87C426.55,185.21,426.57,185.22,426.57,185.24Z" transform="translate(-244.16 -41.44)"/><path class="cls-1" d="M422.27,182.75a5.4,5.4,0,0,0,1.48,2.58s0,0,0,0c-.2,0-1.32-.15-1.48.86,0,0,0,0,0,0a5.39,5.39,0,0,0-1.5-2.58s0,0,0,0c.21,0,1.33.15,1.5-.86C422.25,182.72,422.27,182.73,422.27,182.75Z" transform="translate(-244.16 -41.44)"/><path class="cls-1" d="M418,180.27a5.45,5.45,0,0,0,1.48,2.58s0,0,0,0c-.2,0-1.32-.14-1.48.87,0,0,0,0,0,0a5.39,5.39,0,0,0-1.49-2.58s0,0,0,0c.2,0,1.33.14,1.49-.87C418,180.24,418,180.25,418,180.27Z" transform="translate(-244.16 -41.44)"/><path class="cls-1" d="M413.66,177.78a5.48,5.48,0,0,0,1.48,2.58s0,0,0,0c-.2,0-1.31-.15-1.48.86,0,0,0,0,0,0a5.39,5.39,0,0,0-1.49-2.58s0,0,0,0c.2,0,1.33.15,1.49-.86C413.64,177.76,413.66,177.77,413.66,177.78Z" transform="translate(-244.16 -41.44)"/><path class="cls-1" d="M409.36,175.3a5.4,5.4,0,0,0,1.48,2.58s0,0,0,0c-.2,0-1.32-.14-1.48.87,0,0,0,0,0,0a5.47,5.47,0,0,0-1.5-2.58s0,0,0,0c.2,0,1.33.15,1.5-.87C409.34,175.27,409.36,175.28,409.36,175.3Z" transform="translate(-244.16 -41.44)"/><path class="cls-1" d="M405.05,172.81a5.47,5.47,0,0,0,1.49,2.58s0,0,0,0c-.2,0-1.32-.15-1.49.86,0,0,0,0,0,0a5.39,5.39,0,0,0-1.49-2.58s0,0,0,0c.2,0,1.33.15,1.49-.86C405,172.79,405.05,172.8,405.05,172.81Z" transform="translate(-244.16 -41.44)"/><path class="cls-1" d="M400.75,170.33a5.4,5.4,0,0,0,1.48,2.58s0,0,0,0c-.2,0-1.32-.14-1.48.87,0,0,0,0,0,0a5.45,5.45,0,0,0-1.49-2.58s0,0,0,0c.2,0,1.33.15,1.49-.86C400.73,170.3,400.75,170.31,400.75,170.33Z" transform="translate(-244.16 -41.44)"/><path class="cls-1" d="M396.45,167.84a5.4,5.4,0,0,0,1.48,2.58s0,0,0,0c-.2,0-1.32-.15-1.48.86,0,0,0,0,0,0a5.47,5.47,0,0,0-1.5-2.58s0,0,0,0c.2,0,1.33.15,1.5-.86C396.43,167.82,396.44,167.83,396.45,167.84Z" transform="translate(-244.16 -41.44)"/><path class="cls-1" d="M392.14,180.33a5.47,5.47,0,0,0,1.49,2.58s0,0,0,0c-.2,0-1.32-.14-1.49.87,0,0,0,0,0,0a5.49,5.49,0,0,0-1.49-2.59s0,0,0,0c.2,0,1.33.15,1.49-.86C392.12,180.3,392.14,180.31,392.14,180.33Z" transform="translate(-244.16 -41.44)"/><path class="cls-1" d="M387.84,177.84a5.4,5.4,0,0,0,1.48,2.58s0,0,0,0c-.2,0-1.32-.15-1.48.86,0,0,0,0,0,0a5.39,5.39,0,0,0-1.5-2.58s0,0,0,0c.21,0,1.33.15,1.5-.86C387.82,177.82,387.84,177.83,387.84,177.84Z" transform="translate(-244.16 -41.44)"/><path class="cls-1" d="M383.54,175.36a5.4,5.4,0,0,0,1.48,2.58s0,0,0,0c-.2,0-1.32-.14-1.48.87,0,0,0,0,0,0a5.49,5.49,0,0,0-1.49-2.59s0,0,0,0c.2,0,1.33.15,1.49-.86C383.52,175.33,383.53,175.34,383.54,175.36Z" transform="translate(-244.16 -41.44)"/><path class="cls-1" d="M379.23,172.87a5.48,5.48,0,0,0,1.48,2.58s0,0,0,0c-.2,0-1.31-.15-1.48.86,0,0,0,0,0,0a5.39,5.39,0,0,0-1.49-2.58s0,0,0,0c.2,0,1.33.15,1.49-.86C379.21,172.85,379.23,172.86,379.23,172.87Z" transform="translate(-244.16 -41.44)"/><path class="cls-1" d="M392.14,175.34a5.47,5.47,0,0,0,1.49,2.58s0,0,0,0c-.2,0-1.32-.14-1.49.87h0a5.49,5.49,0,0,0-1.49-2.59s0,0,0,0c.2,0,1.33.15,1.49-.86C392.12,175.31,392.14,175.32,392.14,175.34Z" transform="translate(-244.16 -41.44)"/><path class="cls-1" d="M387.84,172.85a5.4,5.4,0,0,0,1.48,2.58s0,0,0,0c-.2,0-1.32-.15-1.48.86,0,0,0,0,0,0a5.39,5.39,0,0,0-1.5-2.58s0,0,0,0c.21,0,1.33.15,1.5-.86Z" transform="translate(-244.16 -41.44)"/><path class="cls-1" d="M383.54,170.37A5.4,5.4,0,0,0,385,173s0,0,0,0c-.2,0-1.32-.14-1.48.87,0,0,0,0,0,0a5.49,5.49,0,0,0-1.49-2.59s0,0,0,0c.2,0,1.33.15,1.49-.86C383.52,170.34,383.53,170.35,383.54,170.37Z" transform="translate(-244.16 -41.44)"/><path class="cls-1" d="M379.23,167.88a5.48,5.48,0,0,0,1.48,2.58s0,0,0,0c-.2,0-1.31-.15-1.48.86,0,0,0,0,0,0a5.39,5.39,0,0,0-1.49-2.58s0,0,0,0c.2,0,1.33.15,1.49-.86Z" transform="translate(-244.16 -41.44)"/><path class="cls-1" d="M392.14,170.35a5.47,5.47,0,0,0,1.49,2.58s0,0,0,0c-.2,0-1.32-.14-1.49.87,0,0,0,0,0,0a5.49,5.49,0,0,0-1.49-2.59s0,0,0,0c.2,0,1.33.15,1.49-.86C392.12,170.32,392.14,170.33,392.14,170.35Z" transform="translate(-244.16 -41.44)"/><path class="cls-1" d="M387.84,167.86a5.4,5.4,0,0,0,1.48,2.58s0,0,0,0c-.2,0-1.32-.15-1.48.86,0,0,0,0,0,0a5.39,5.39,0,0,0-1.5-2.58s0,0,0,0c.21,0,1.33.15,1.5-.86C387.82,167.84,387.84,167.85,387.84,167.86Z" transform="translate(-244.16 -41.44)"/><path class="cls-1" d="M383.54,165.38A5.4,5.4,0,0,0,385,168s0,0,0,0c-.2,0-1.32-.14-1.48.87,0,0,0,0,0,0a5.49,5.49,0,0,0-1.49-2.59s0,0,0,0c.2,0,1.33.15,1.49-.86C383.52,165.35,383.53,165.36,383.54,165.38Z" transform="translate(-244.16 -41.44)"/><path class="cls-1" d="M379.23,162.89a5.48,5.48,0,0,0,1.48,2.58s0,0,0,0c-.2,0-1.31-.15-1.48.86,0,0,0,0,0,0a5.39,5.39,0,0,0-1.49-2.58s0,0,0,0c.2,0,1.33.15,1.49-.86Z" transform="translate(-244.16 -41.44)"/><path class="cls-1" d="M392.14,165.36a5.47,5.47,0,0,0,1.49,2.58s0,0,0,0c-.2,0-1.32-.14-1.49.87,0,0,0,0,0,0a5.44,5.44,0,0,0-1.49-2.59s0,0,0,0c.2,0,1.33.15,1.49-.86C392.12,165.33,392.14,165.34,392.14,165.36Z" transform="translate(-244.16 -41.44)"/><path class="cls-1" d="M387.84,162.87a5.4,5.4,0,0,0,1.48,2.58s0,0,0,0c-.2,0-1.32-.15-1.48.86,0,0,0,0,0,0a5.39,5.39,0,0,0-1.5-2.58s0,0,0,0c.21,0,1.33.15,1.5-.86C387.82,162.85,387.84,162.86,387.84,162.87Z" transform="translate(-244.16 -41.44)"/><path class="cls-1" d="M383.54,160.39A5.4,5.4,0,0,0,385,163s0,0,0,0c-.2,0-1.32-.14-1.48.87,0,0,0,0,0,0a5.49,5.49,0,0,0-1.49-2.59s0,0,0,0c.2,0,1.33.15,1.49-.86C383.52,160.36,383.53,160.37,383.54,160.39Z" transform="translate(-244.16 -41.44)"/><path class="cls-1" d="M379.23,157.9a5.48,5.48,0,0,0,1.48,2.58s0,0,0,0c-.2,0-1.31-.15-1.48.86,0,0,0,0,0,0a5.39,5.39,0,0,0-1.49-2.58s0,0,0,0c.2,0,1.33.15,1.49-.86C379.21,157.88,379.23,157.89,379.23,157.9Z" transform="translate(-244.16 -41.44)"/><path class="cls-1" d="M478.22,215.05a5.4,5.4,0,0,0,1.48,2.58s0,0,0,0c-.2,0-1.32-.15-1.48.86,0,0,0,0,0,0a5.47,5.47,0,0,0-1.5-2.58s0,0,0,0c.2,0,1.33.15,1.5-.86C478.2,215,478.22,215,478.22,215.05Z" transform="translate(-244.16 -41.44)"/><path class="cls-1" d="M473.91,212.57a5.47,5.47,0,0,0,1.49,2.58s0,0,0,0c-.2,0-1.32-.14-1.49.87,0,0,0,0,0,0a5.49,5.49,0,0,0-1.49-2.59s0,0,0,0c.2,0,1.33.15,1.49-.86C473.89,212.54,473.91,212.55,473.91,212.57Z" transform="translate(-244.16 -41.44)"/><path class="cls-1" d="M469.61,210.08a5.4,5.4,0,0,0,1.48,2.58s0,0,0,0c-.2,0-1.32-.15-1.48.86,0,0,0,0,0,0a5.39,5.39,0,0,0-1.5-2.58s0,0,0,0c.21,0,1.33.15,1.5-.86C469.59,210.06,469.61,210.07,469.61,210.08Z" transform="translate(-244.16 -41.44)"/><path class="cls-1" d="M465.31,207.6a5.4,5.4,0,0,0,1.48,2.58s0,0,0,0c-.2,0-1.32-.14-1.48.87,0,0,0,0,0,0a5.49,5.49,0,0,0-1.49-2.59s0,0,0,0c.2,0,1.33.15,1.49-.86C465.29,207.57,465.3,207.58,465.31,207.6Z" transform="translate(-244.16 -41.44)"/><path class="cls-1" d="M461,205.11a5.56,5.56,0,0,0,1.48,2.58s0,0,0,0c-.19,0-1.31-.15-1.48.86,0,0,0,0,0,0a5.39,5.39,0,0,0-1.49-2.58s0,0,0,0c.2,0,1.33.15,1.49-.86C461,205.09,461,205.1,461,205.11Z" transform="translate(-244.16 -41.44)"/><path class="cls-1" d="M456.7,202.63a5.4,5.4,0,0,0,1.48,2.58s0,0,0,0c-.2,0-1.32-.14-1.48.87,0,0,0,0,0,0a5.49,5.49,0,0,0-1.5-2.59s0,0,0,0c.2,0,1.33.15,1.5-.86C456.68,202.6,456.7,202.61,456.7,202.63Z" transform="translate(-244.16 -41.44)"/><path class="cls-1" d="M452.4,200.15a5.4,5.4,0,0,0,1.48,2.57s0,0,0,0c-.2,0-1.32-.15-1.48.86,0,0,0,0,0,0a5.39,5.39,0,0,0-1.49-2.58s0,0,0,0c.2,0,1.33.15,1.49-.86C452.38,200.12,452.39,200.13,452.4,200.15Z" transform="translate(-244.16 -41.44)"/><path class="cls-1" d="M448.09,197.66a5.48,5.48,0,0,0,1.48,2.58s0,0,0,0c-.2,0-1.31-.14-1.48.87h0a5.49,5.49,0,0,0-1.49-2.59s0,0,0,0c.2,0,1.33.15,1.49-.86C448.07,197.63,448.09,197.64,448.09,197.66Z" transform="translate(-244.16 -41.44)"/><path class="cls-1" d="M443.79,195.18a5.4,5.4,0,0,0,1.48,2.57s0,0,0,0c-.2,0-1.32-.15-1.48.87,0,0,0,0,0,0a5.47,5.47,0,0,0-1.5-2.58s0,0,0,0c.2,0,1.33.15,1.5-.86C443.77,195.15,443.79,195.16,443.79,195.18Z" transform="translate(-244.16 -41.44)"/><path class="cls-1" d="M439.48,192.69a5.47,5.47,0,0,0,1.49,2.58s0,0,0,0c-.2,0-1.32-.15-1.49.86h0a5.39,5.39,0,0,0-1.49-2.58s0,0,0,0c.2,0,1.33.15,1.49-.86C439.46,192.66,439.48,192.67,439.48,192.69Z" transform="translate(-244.16 -41.44)"/><path class="cls-1" d="M435.18,109.61a5.4,5.4,0,0,0,1.48,2.58s0,0,0,0c-.2,0-1.32-.15-1.48.86,0,0,0,0,0,0a5.39,5.39,0,0,0-1.49-2.58s0,0,0,0c.2,0,1.33.15,1.49-.86C435.16,109.58,435.18,109.6,435.18,109.61Z" transform="translate(-244.16 -41.44)"/><path class="cls-1" d="M430.88,107.13a5.45,5.45,0,0,0,1.48,2.58s0,0,0,0c-.2,0-1.32-.14-1.48.87,0,0,0,0,0,0a5.39,5.39,0,0,0-1.49-2.58s0,0,0,0c.2,0,1.33.15,1.49-.87C430.86,107.1,430.87,107.11,430.88,107.13Z" transform="translate(-244.16 -41.44)"/><path class="cls-1" d="M426.57,104.64a5.47,5.47,0,0,0,1.49,2.58s0,0,0,0c-.2,0-1.32-.15-1.49.86,0,0,0,0,0,0a5.39,5.39,0,0,0-1.49-2.58s0,0,0,0c.2,0,1.33.15,1.49-.86C426.55,104.62,426.57,104.63,426.57,104.64Z" transform="translate(-244.16 -41.44)"/><path class="cls-1" d="M422.27,102.16a5.4,5.4,0,0,0,1.48,2.58s0,0,0,0c-.2,0-1.32-.14-1.48.87,0,0,0,0,0,0a5.44,5.44,0,0,0-1.5-2.58s0,0,0,0c.21,0,1.33.15,1.5-.87C422.25,102.13,422.27,102.14,422.27,102.16Z" transform="translate(-244.16 -41.44)"/><path class="cls-1" d="M418,99.67a5.4,5.4,0,0,0,1.48,2.58s0,0,0,0c-.2,0-1.32-.15-1.48.86,0,0,0,0,0,0a5.39,5.39,0,0,0-1.49-2.58s0,0,0,0c.2,0,1.33.15,1.49-.86C418,99.65,418,99.66,418,99.67Z" transform="translate(-244.16 -41.44)"/><path class="cls-1" d="M413.66,97.19a5.48,5.48,0,0,0,1.48,2.58s0,0,0,0c-.2,0-1.31-.14-1.48.87,0,0,0,0,0,0a5.44,5.44,0,0,0-1.49-2.59s0,0,0,0c.2,0,1.33.15,1.49-.86C413.64,97.16,413.66,97.17,413.66,97.19Z" transform="translate(-244.16 -41.44)"/><path class="cls-1" d="M409.36,94.7a5.4,5.4,0,0,0,1.48,2.58s0,0,0,0c-.2,0-1.32-.15-1.48.86,0,0,0,0,0,0a5.47,5.47,0,0,0-1.5-2.58s0,0,0,0c.2,0,1.33.15,1.5-.86C409.34,94.68,409.36,94.69,409.36,94.7Z" transform="translate(-244.16 -41.44)"/><path class="cls-1" d="M405.05,92.22a5.47,5.47,0,0,0,1.49,2.58s0,0,0,0c-.2,0-1.32-.14-1.49.87,0,0,0,0,0,0a5.49,5.49,0,0,0-1.49-2.59s0,0,0,0c.2,0,1.33.15,1.49-.86C405,92.19,405.05,92.2,405.05,92.22Z" transform="translate(-244.16 -41.44)"/><path class="cls-1" d="M400.75,89.73a5.4,5.4,0,0,0,1.48,2.58s0,0,0,0c-.2,0-1.32-.15-1.48.86,0,0,0,0,0,0a5.39,5.39,0,0,0-1.49-2.58s0,0,0,0c.2,0,1.33.15,1.49-.86C400.73,89.71,400.75,89.72,400.75,89.73Z" transform="translate(-244.16 -41.44)"/><path class="cls-1" d="M396.45,87.25a5.4,5.4,0,0,0,1.48,2.58s0,0,0,0c-.2,0-1.32-.14-1.48.87,0,0,0,0,0,0a5.57,5.57,0,0,0-1.5-2.59s0,0,0,0c.2,0,1.33.15,1.5-.86C396.43,87.22,396.44,87.23,396.45,87.25Z" transform="translate(-244.16 -41.44)"/><path class="cls-1" d="M478.22,134.46A5.4,5.4,0,0,0,479.7,137s0,0,0,0c-.2,0-1.32-.14-1.48.87,0,0,0,0,0,0a5.57,5.57,0,0,0-1.5-2.59s0,0,0,0c.2,0,1.33.15,1.5-.86C478.2,134.43,478.22,134.44,478.22,134.46Z" transform="translate(-244.16 -41.44)"/><path class="cls-1" d="M473.91,132a5.47,5.47,0,0,0,1.49,2.58s0,0,0,0c-.2,0-1.32-.15-1.49.86,0,0,0,0,0,0a5.39,5.39,0,0,0-1.49-2.58s0,0,0,0c.2,0,1.33.15,1.49-.86C473.89,132,473.91,132,473.91,132Z" transform="translate(-244.16 -41.44)"/><path class="cls-1" d="M469.61,129.49a5.4,5.4,0,0,0,1.48,2.58s0,0,0,0c-.2,0-1.32-.14-1.48.87,0,0,0,0,0,0a5.49,5.49,0,0,0-1.5-2.59s0,0,0,0c.21,0,1.33.15,1.5-.86C469.59,129.46,469.61,129.47,469.61,129.49Z" transform="translate(-244.16 -41.44)"/><path class="cls-1" d="M465.31,127a5.4,5.4,0,0,0,1.48,2.57s0,0,0,0c-.2,0-1.32-.15-1.48.86,0,0,0,0,0,0a5.39,5.39,0,0,0-1.49-2.58s0,0,0,0c.2,0,1.33.15,1.49-.86C465.29,127,465.3,127,465.31,127Z" transform="translate(-244.16 -41.44)"/><path class="cls-1" d="M461,124.52a5.56,5.56,0,0,0,1.48,2.58s0,0,0,0c-.19,0-1.31-.15-1.48.86,0,0,0,0,0,0a5.49,5.49,0,0,0-1.49-2.59s0,0,0,0c.2,0,1.33.15,1.49-.86C461,124.49,461,124.5,461,124.52Z" transform="translate(-244.16 -41.44)"/><path class="cls-1" d="M456.7,122a5.35,5.35,0,0,0,1.48,2.57s0,0,0,0c-.2,0-1.32-.15-1.48.87,0,0,0,0,0,0a5.39,5.39,0,0,0-1.5-2.58s0,0,0,0c.2,0,1.33.15,1.5-.86C456.68,122,456.7,122,456.7,122Z" transform="translate(-244.16 -41.44)"/><path class="cls-1" d="M452.4,119.55a5.4,5.4,0,0,0,1.48,2.58s0,0,0,0c-.2,0-1.32-.15-1.48.86,0,0,0,0,0,0a5.39,5.39,0,0,0-1.49-2.58s0,0,0,0c.2,0,1.33.15,1.49-.86C452.38,119.52,452.39,119.53,452.4,119.55Z" transform="translate(-244.16 -41.44)"/><path class="cls-1" d="M448.09,117.07a5.53,5.53,0,0,0,1.48,2.58s0,0,0,0c-.2,0-1.31-.14-1.48.87,0,0,0,0,0,0a5.39,5.39,0,0,0-1.49-2.58s0,0,0,0c.2,0,1.33.15,1.49-.86C448.07,117,448.09,117.05,448.09,117.07Z" transform="translate(-244.16 -41.44)"/><path class="cls-1" d="M443.79,114.58a5.4,5.4,0,0,0,1.48,2.58s0,0,0,0c-.2,0-1.32-.15-1.48.86,0,0,0,0,0,0a5.47,5.47,0,0,0-1.5-2.58s0,0,0,0c.2,0,1.33.15,1.5-.86C443.77,114.55,443.79,114.56,443.79,114.58Z" transform="translate(-244.16 -41.44)"/><path class="cls-1" d="M439.48,112.1a5.53,5.53,0,0,0,1.49,2.58s0,0,0,0c-.2,0-1.32-.14-1.49.87,0,0,0,0,0,0A5.39,5.39,0,0,0,438,113s0,0,0,0c.2,0,1.33.14,1.49-.87C439.46,112.07,439.48,112.08,439.48,112.1Z" transform="translate(-244.16 -41.44)"/><path class="cls-1" d="M435.18,104.62a5.4,5.4,0,0,0,1.48,2.58s0,0,0,0c-.2,0-1.32-.15-1.48.86,0,0,0,0,0,0a5.39,5.39,0,0,0-1.49-2.58s0,0,0,0c.2,0,1.33.15,1.49-.86C435.16,104.59,435.18,104.6,435.18,104.62Z" transform="translate(-244.16 -41.44)"/><path class="cls-1" d="M430.88,102.14a5.45,5.45,0,0,0,1.48,2.58s0,0,0,0c-.2,0-1.32-.14-1.48.87,0,0,0,0,0,0a5.39,5.39,0,0,0-1.49-2.58s0,0,0,0c.2,0,1.33.14,1.49-.87C430.86,102.11,430.87,102.12,430.88,102.14Z" transform="translate(-244.16 -41.44)"/><path class="cls-1" d="M426.57,99.65a5.47,5.47,0,0,0,1.49,2.58s0,0,0,0c-.2,0-1.32-.15-1.49.86,0,0,0,0,0,0a5.39,5.39,0,0,0-1.49-2.58s0,0,0,0c.2,0,1.33.15,1.49-.86C426.55,99.62,426.57,99.64,426.57,99.65Z" transform="translate(-244.16 -41.44)"/><path class="cls-1" d="M422.27,97.17a5.4,5.4,0,0,0,1.48,2.58s0,0,0,0c-.2,0-1.32-.14-1.48.87,0,0,0,0,0,0a5.39,5.39,0,0,0-1.5-2.58s0,0,0,0c.21,0,1.33.15,1.5-.87C422.25,97.14,422.27,97.15,422.27,97.17Z" transform="translate(-244.16 -41.44)"/><path class="cls-1" d="M418,94.68a5.4,5.4,0,0,0,1.48,2.58s0,0,0,0c-.2,0-1.32-.15-1.48.86,0,0,0,0,0,0a5.39,5.39,0,0,0-1.49-2.58s0,0,0,0c.2,0,1.33.15,1.49-.86C418,94.66,418,94.67,418,94.68Z" transform="translate(-244.16 -41.44)"/><path class="cls-1" d="M413.66,92.2a5.48,5.48,0,0,0,1.48,2.58s0,0,0,0c-.2,0-1.31-.14-1.48.87,0,0,0,0,0,0a5.45,5.45,0,0,0-1.49-2.58s0,0,0,0c.2,0,1.33.15,1.49-.86C413.64,92.17,413.66,92.18,413.66,92.2Z" transform="translate(-244.16 -41.44)"/><path class="cls-1" d="M409.36,89.71a5.4,5.4,0,0,0,1.48,2.58s0,0,0,0c-.2,0-1.32-.15-1.48.86,0,0,0,0,0,0a5.47,5.47,0,0,0-1.5-2.58s0,0,0,0c.2,0,1.33.15,1.5-.86C409.34,89.69,409.36,89.7,409.36,89.71Z" transform="translate(-244.16 -41.44)"/><path class="cls-1" d="M405.05,87.23a5.47,5.47,0,0,0,1.49,2.58s0,0,0,0c-.2,0-1.32-.14-1.49.87,0,0,0,0,0,0a5.44,5.44,0,0,0-1.49-2.59s0,0,0,0c.2,0,1.33.15,1.49-.86C405,87.2,405.05,87.21,405.05,87.23Z" transform="translate(-244.16 -41.44)"/><path class="cls-1" d="M400.75,84.74a5.4,5.4,0,0,0,1.48,2.58s0,0,0,0c-.2,0-1.32-.15-1.48.86,0,0,0,0,0,0a5.39,5.39,0,0,0-1.49-2.58s0,0,0,0c.2,0,1.33.15,1.49-.86C400.73,84.72,400.75,84.73,400.75,84.74Z" transform="translate(-244.16 -41.44)"/><path class="cls-1" d="M396.45,82.26a5.4,5.4,0,0,0,1.48,2.58s0,0,0,0c-.2,0-1.32-.14-1.48.87,0,0,0,0,0,0a5.57,5.57,0,0,0-1.5-2.59s0,0,0,0c.2,0,1.33.15,1.5-.86C396.43,82.23,396.44,82.24,396.45,82.26Z" transform="translate(-244.16 -41.44)"/><path class="cls-1" d="M478.22,129.47a5.4,5.4,0,0,0,1.48,2.58s0,0,0,0c-.2,0-1.32-.14-1.48.87h0a5.57,5.57,0,0,0-1.5-2.59s0,0,0,0c.2,0,1.33.15,1.5-.86C478.2,129.44,478.22,129.45,478.22,129.47Z" transform="translate(-244.16 -41.44)"/><path class="cls-1" d="M473.91,127a5.47,5.47,0,0,0,1.49,2.58s0,0,0,0c-.2,0-1.32-.15-1.49.86,0,0,0,0,0,0a5.39,5.39,0,0,0-1.49-2.58s0,0,0,0c.2,0,1.33.15,1.49-.86C473.89,127,473.91,127,473.91,127Z" transform="translate(-244.16 -41.44)"/><path class="cls-1" d="M469.61,124.5a5.4,5.4,0,0,0,1.48,2.58s0,0,0,0c-.2,0-1.32-.14-1.48.87,0,0,0,0,0,0a5.49,5.49,0,0,0-1.5-2.59s0,0,0,0c.21,0,1.33.15,1.5-.86C469.59,124.47,469.61,124.48,469.61,124.5Z" transform="translate(-244.16 -41.44)"/><path class="cls-1" d="M465.31,122a5.4,5.4,0,0,0,1.48,2.57s0,0,0,0c-.2,0-1.32-.15-1.48.86,0,0,0,0,0,0a5.39,5.39,0,0,0-1.49-2.58s0,0,0,0c.2,0,1.33.15,1.49-.86C465.29,122,465.3,122,465.31,122Z" transform="translate(-244.16 -41.44)"/><path class="cls-1" d="M461,119.53a5.56,5.56,0,0,0,1.48,2.58s0,0,0,0c-.19,0-1.31-.14-1.48.87,0,0,0,0,0,0a5.49,5.49,0,0,0-1.49-2.59s0,0,0,0c.2,0,1.33.15,1.49-.86C461,119.5,461,119.51,461,119.53Z" transform="translate(-244.16 -41.44)"/><path class="cls-1" d="M456.7,117.05a5.4,5.4,0,0,0,1.48,2.57s0,0,0,0c-.2,0-1.32-.15-1.48.87,0,0,0,0,0,0a5.39,5.39,0,0,0-1.5-2.58s0,0,0,0c.2,0,1.33.15,1.5-.86C456.68,117,456.7,117,456.7,117.05Z" transform="translate(-244.16 -41.44)"/><path class="cls-1" d="M452.4,114.56a5.4,5.4,0,0,0,1.48,2.58s0,0,0,0c-.2,0-1.32-.15-1.48.86,0,0,0,0,0,0a5.39,5.39,0,0,0-1.49-2.58s0,0,0,0c.2,0,1.33.15,1.49-.86C452.38,114.53,452.39,114.54,452.4,114.56Z" transform="translate(-244.16 -41.44)"/><path class="cls-1" d="M448.09,112.08a5.53,5.53,0,0,0,1.48,2.58s0,0,0,0c-.2,0-1.31-.15-1.48.87,0,0,0,0,0,0a5.39,5.39,0,0,0-1.49-2.58s0,0,0,0c.2,0,1.33.15,1.49-.86C448.07,112.05,448.09,112.06,448.09,112.08Z" transform="translate(-244.16 -41.44)"/><path class="cls-1" d="M443.79,109.59a5.4,5.4,0,0,0,1.48,2.58s0,0,0,0c-.2,0-1.32-.15-1.48.86,0,0,0,0,0,0a5.47,5.47,0,0,0-1.5-2.58s0,0,0,0c.2,0,1.33.15,1.5-.86C443.77,109.56,443.79,109.57,443.79,109.59Z" transform="translate(-244.16 -41.44)"/><path class="cls-1" d="M439.48,107.11a5.53,5.53,0,0,0,1.49,2.58s0,0,0,0c-.2,0-1.32-.14-1.49.87,0,0,0,0,0,0A5.39,5.39,0,0,0,438,108s0,0,0,0c.2,0,1.33.14,1.49-.87C439.46,107.08,439.48,107.09,439.48,107.11Z" transform="translate(-244.16 -41.44)"/><path class="cls-1" d="M392.14,84.76a5.47,5.47,0,0,0,1.49,2.58s0,0,0,0c-.2,0-1.32-.15-1.49.86,0,0,0,0,0,0a5.39,5.39,0,0,0-1.49-2.58s0,0,0,0c.2,0,1.33.15,1.49-.86C392.12,84.74,392.14,84.75,392.14,84.76Z" transform="translate(-244.16 -41.44)"/><path class="cls-1" d="M387.84,82.28a5.4,5.4,0,0,0,1.48,2.58s0,0,0,0c-.2,0-1.32-.14-1.48.87,0,0,0,0,0,0a5.49,5.49,0,0,0-1.5-2.59s0,0,0,0c.21,0,1.33.15,1.5-.86C387.82,82.25,387.84,82.26,387.84,82.28Z" transform="translate(-244.16 -41.44)"/><path class="cls-1" d="M383.54,79.79A5.4,5.4,0,0,0,385,82.37s0,0,0,0c-.2,0-1.32-.15-1.48.86,0,0,0,0,0,0A5.39,5.39,0,0,0,382,80.67s0,0,0,0c.2,0,1.33.15,1.49-.86C383.52,79.77,383.53,79.78,383.54,79.79Z" transform="translate(-244.16 -41.44)"/><path class="cls-1" d="M379.23,77.31a5.48,5.48,0,0,0,1.48,2.58s0,0,0,0c-.2,0-1.31-.14-1.48.87,0,0,0,0,0,0a5.49,5.49,0,0,0-1.49-2.59s0,0,0,0c.2,0,1.33.15,1.49-.86C379.21,77.28,379.23,77.29,379.23,77.31Z" transform="translate(-244.16 -41.44)"/><path class="cls-1" d="M392.14,79.77a5.47,5.47,0,0,0,1.49,2.58s0,0,0,0c-.2,0-1.32-.15-1.49.86,0,0,0,0,0,0a5.39,5.39,0,0,0-1.49-2.58s0,0,0,0c.2,0,1.33.15,1.49-.86C392.12,79.75,392.14,79.76,392.14,79.77Z" transform="translate(-244.16 -41.44)"/><path class="cls-1" d="M387.84,77.29a5.4,5.4,0,0,0,1.48,2.58s0,0,0,0c-.2,0-1.32-.14-1.48.87,0,0,0,0,0,0a5.49,5.49,0,0,0-1.5-2.59s0,0,0,0c.21,0,1.33.15,1.5-.86C387.82,77.26,387.84,77.27,387.84,77.29Z" transform="translate(-244.16 -41.44)"/><path class="cls-1" d="M383.54,74.8A5.4,5.4,0,0,0,385,77.38s0,0,0,0c-.2,0-1.32-.15-1.48.86,0,0,0,0,0,0A5.39,5.39,0,0,0,382,75.68s0,0,0,0c.2,0,1.33.15,1.49-.86C383.52,74.78,383.53,74.79,383.54,74.8Z" transform="translate(-244.16 -41.44)"/><path class="cls-1" d="M379.23,72.32a5.48,5.48,0,0,0,1.48,2.58s0,0,0,0c-.2,0-1.31-.14-1.48.87,0,0,0,0,0,0a5.49,5.49,0,0,0-1.49-2.59s0,0,0,0c.2,0,1.33.15,1.49-.86C379.21,72.29,379.23,72.3,379.23,72.32Z" transform="translate(-244.16 -41.44)"/><polygon class="cls-3" points="154.28 75.46 131.12 62.09 131.12 52.76 154.28 66.13 154.28 75.46"/><path class="cls-1" d="M399.06,118l-24.4-14.08V93.12l24.4,14.09Zm-23.15-14.8,21.91,12.65v-7.89L375.91,95.28Z" transform="translate(-244.16 -41.44)"/><polygon class="cls-3" points="127.53 98.09 112.36 89.34 112.36 85.55 127.53 94.3 127.53 98.09"/><path class="cls-1" d="M372.31,140.61l-16.41-9.47v-5.23l16.41,9.47Zm-15.16-10.19,13.91,8V136.1l-13.91-8Z" transform="translate(-244.16 -41.44)"/><polygon class="cls-3" points="154.41 113.61 131.12 100.17 131.12 96.38 154.41 109.82 154.41 113.61"/><path class="cls-1" d="M399.19,156.13,374.66,142v-5.23l24.53,14.16Zm-23.28-14.88L398,154v-2.35l-22-12.72Z" transform="translate(-244.16 -41.44)"/><polygon class="cls-2" points="154.41 105.71 112.36 81.44 112.36 72.11 154.41 96.38 154.41 105.71"/><path class="cls-1" d="M399.19,148.23l-43.29-25V112.47l43.29,25Zm-42-25.71L398,146.07v-7.89l-40.8-23.55Z" transform="translate(-244.16 -41.44)"/><polygon class="cls-3" points="154.28 92.06 112.36 67.86 112.36 63.8 154.28 88 154.28 92.06"/><path class="cls-1" d="M399.06,134.58,355.9,109.66v-5.5l43.16,24.92Zm-41.91-25.64,40.67,23.48V129.8l-40.67-23.48Z" transform="translate(-244.16 -41.44)"/><polygon class="cls-3" points="154.28 83.63 131.12 70.27 131.12 66.13 154.28 79.5 154.28 83.63"/><path class="cls-1" d="M399.06,126.15l-24.4-14.08v-5.58l24.4,14.09Zm-23.15-14.8L397.82,124V121.3l-21.91-12.65Z" transform="translate(-244.16 -41.44)"/><polygon class="cls-2" points="112.36 59.44 127.53 68.19 127.53 50.68 112.36 41.93 112.36 59.44"/><path class="cls-1" d="M372.31,110.71l-16.41-9.47V82.29l16.41,9.47Zm-15.16-10.19,13.91,8V92.48l-13.91-8Z" transform="translate(-244.16 -41.44)"/><polygon class="cls-3" points="179.36 128.25 162.13 118.27 162.13 113.22 179.36 123.2 179.36 128.25"/><path class="cls-1" d="M424.15,170.77l-18.49-10.7v-6.49l18.49,10.7Zm-17.24-11.42,16,9.25V165l-16-9.25Z" transform="translate(-244.16 -41.44)"/><polygon class="cls-3" points="162.13 99.26 230.15 138.3 230.15 128.68 162.13 89.64 162.13 99.26"/><path class="cls-1" d="M474.94,180.82l-69.28-39.76V130l69.28,39.76Zm-68-40.48,66.78,38.32v-8.18l-66.78-38.33Z" transform="translate(-244.16 -41.44)"/><polygon class="cls-2" points="162.13 107.33 230.15 146.37 230.15 142.91 162.13 103.86 162.13 107.33"/><path class="cls-1" d="M474.94,188.89l-69.28-39.76v-4.9L474.94,184Zm-68-40.48,66.78,38.33v-2l-66.78-38.33Z" transform="translate(-244.16 -41.44)"/><rect class="cls-1" x="446.15" y="91.2" width="1.25" height="10.83" transform="translate(-104.44 393.79) rotate(-60)"/><rect class="cls-1" x="471.25" y="91.91" width="1.25" height="38.39" transform="translate(-104.44 422.77) rotate(-60)"/><path class="cls-1" d="M492.49,256.9l-.65-1.06,6.36-3.91a4.53,4.53,0,0,0,2.15-3.83V222.93h1.24V248.1a5.8,5.8,0,0,1-2.74,4.9Z" transform="translate(-244.16 -41.44)"/><path class="cls-3" d="M472.83,198.83l-42.45-24.51a5.19,5.19,0,0,1-2.17-4.14h0c0-1.6,1-2.33,2.17-1.64l42.45,24.51a5.19,5.19,0,0,1,2.17,4.14h0C475,198.79,474,199.52,472.83,198.83Z" transform="translate(-244.16 -41.44)"/><path class="cls-1" d="M473.69,199.71a2.36,2.36,0,0,1-1.17-.34h0l-42.45-24.51a5.81,5.81,0,0,1-2.48-4.68,2.52,2.52,0,0,1,1.06-2.29,2,2,0,0,1,2,.11l42.45,24.51a5.81,5.81,0,0,1,2.48,4.68,2.5,2.5,0,0,1-1.06,2.29A1.64,1.64,0,0,1,473.69,199.71Zm-.55-1.42a.86.86,0,0,0,.8.11,1.4,1.4,0,0,0,.44-1.21,4.57,4.57,0,0,0-1.86-3.6l-42.45-24.51a.89.89,0,0,0-.8-.11,1.4,1.4,0,0,0-.43,1.21,4.59,4.59,0,0,0,1.85,3.6Z" transform="translate(-244.16 -41.44)"/><path class="cls-3" d="M469,194.53l-20.89,12a37.85,37.85,0,0,0-17,20.84l-7.5,22.46a50.2,50.2,0,0,1-22.63,27.64l-17,9.68-32.84-19.31,17.26-10a50.15,50.15,0,0,0,22.28-27.1l7.92-23.07a37.92,37.92,0,0,1,16.79-20.46l20.16-11.73Z" transform="translate(-244.16 -41.44)"/><path class="cls-1" d="M384,287.91l-34.07-20,18.19-10.54a49.51,49.51,0,0,0,22-26.77L398,207.49a38.62,38.62,0,0,1,17.06-20.79l20.48-11.91,34.67,19.74-21.82,12.58a37.25,37.25,0,0,0-16.74,20.49l-7.5,22.47a50.74,50.74,0,0,1-22.91,28Zm-31.6-20L384,286.47l16.65-9.5A49.52,49.52,0,0,0,423,249.68l7.5-22.47A38.5,38.5,0,0,1,447.75,206l19.94-11.49-32.15-18.31-19.86,11.55a37.29,37.29,0,0,0-16.51,20.12L391.25,231a50.8,50.8,0,0,1-22.55,27.44Z" transform="translate(-244.16 -41.44)"/><path class="cls-3" d="M375.89,266.25a10.13,10.13,0,0,1,9.15.59c2.43,1.62,2.28,4-.34,5.28a10.13,10.13,0,0,1-9.15-.59C373.12,269.91,373.27,267.54,375.89,266.25Z" transform="translate(-244.16 -41.44)"/><path class="cls-2" d="M374.31,265.42a10.13,10.13,0,0,1,9.15.59c2.43,1.62,2.28,4-.34,5.28a10.12,10.12,0,0,1-9.15-.59C371.53,269.08,371.69,266.71,374.31,265.42Z" transform="translate(-244.16 -41.44)"/><path class="cls-1" d="M375.09,272a3.33,3.33,0,0,1,.41-6.25h0a11,11,0,0,1,10,.64,3.34,3.34,0,0,1-.4,6.26,9.87,9.87,0,0,1-4.28.89A10.66,10.66,0,0,1,375.09,272Zm.78-5.5h0a2.52,2.52,0,0,0-.31,4.8,10.15,10.15,0,0,0,9.16.59,2.52,2.52,0,0,0,.31-4.8,9.73,9.73,0,0,0-5.24-1.41A9,9,0,0,0,375.87,266.49Z" transform="translate(-244.16 -41.44)"/><path class="cls-3" d="M381,267.21l.51,2a.4.4,0,0,1-.11.42,1.47,1.47,0,0,1-1.22.27l-3.38-.6c-.41-.07-.67-.32-.57-.55h0c.09-.24.5-.37.91-.29l2.79.49-.43-1.65c-.07-.25.22-.46.64-.48h0C380.53,266.78,380.92,267,381,267.21Z" transform="translate(-244.16 -41.44)"/><path class="cls-1" d="M381.91,267.83l.51,2a.4.4,0,0,1-.12.42,1.44,1.44,0,0,1-1.21.27l-3.39-.6c-.41-.08-.66-.32-.57-.56h0c.1-.23.5-.36.91-.29l2.79.5-.43-1.66c-.06-.24.22-.45.64-.47h0C381.45,267.4,381.84,267.58,381.91,267.83Z" transform="translate(-244.16 -41.44)"/><path class="cls-1" d="M388.81,271.27a3.83,3.83,0,0,0-.42-4l-.71.45a3.06,3.06,0,0,1,.39,3.21Z" transform="translate(-244.16 -41.44)"/><path class="cls-1" d="M386.66,273.28a5.35,5.35,0,0,0,1.62-1.25l-.63-.55a4.44,4.44,0,0,1-1.35,1Z" transform="translate(-244.16 -41.44)"/><polygon class="cls-2" points="206.07 159.79 186.72 148.71 189.69 147 209.05 158.08 206.07 159.79"/><path class="cls-1" d="M450.24,202l-20.61-11.8,4.22-2.43,20.61,11.8Zm-18.11-11.8,18.1,10.37,1.73-1-18.11-10.37Z" transform="translate(-244.16 -41.44)"/><polygon class="cls-2" points="211.88 156.38 185.76 141.3 188.74 139.58 214.86 154.66 211.88 156.38"/><path class="cls-1" d="M456.05,198.54l-.32-.18-27.05-15.62,4.22-2.44.31.18,27.06,15.62Zm-24.88-15.8,24.88,14.36,1.72-1L432.9,181.74Z" transform="translate(-244.16 -41.44)"/><polygon class="cls-2" points="200.25 163.29 188.01 156.32 190.98 154.61 203.22 161.57 200.25 163.29"/><path class="cls-1" d="M444.41,205.45l-13.49-7.68,4.22-2.44,13.5,7.68Zm-11-7.69,11,6.25,1.72-1-11-6.26Z" transform="translate(-244.16 -41.44)"/><path class="cls-2" d="M420.42,201.44c-.7.73-1.38,1.49-2,2.27l15.73,8.89c.66-.78,1.34-1.53,2.05-2.25Z" transform="translate(-244.16 -41.44)"/><path class="cls-1" d="M434.28,213.4l-16.83-9.51.47-.58c.63-.76,1.3-1.51,2.06-2.3l.33-.35,16.89,9.55-.57.58c-.67.67-1.35,1.42-2,2.21Zm-14.92-9.86L434,211.8c.4-.45.79-.89,1.19-1.31l-14.64-8.27C420.12,202.67,419.73,203.1,419.36,203.54Z" transform="translate(-244.16 -41.44)"/><path class="cls-2" d="M414.69,210l15.63,8.83c.49-.87,1-1.71,1.56-2.54l-15.67-8.85C415.67,208.22,415.16,209.07,414.69,210Z" transform="translate(-244.16 -41.44)"/><path class="cls-1" d="M430.56,219.63l-16.71-9.44.29-.54c.47-.87,1-1.74,1.54-2.6l.32-.49L432.77,216l-.38.56c-.54.81-1.05,1.65-1.52,2.5Zm-15-9.92,14.56,8.22c.29-.49.59-1,.9-1.47l-14.57-8.24C416.11,208.72,415.81,209.21,415.53,209.71Z" transform="translate(-244.16 -41.44)"/><path class="cls-2" d="M410.14,195.57c-.7.73-1.38,1.49-2,2.27l2.79,1.71c.66-.77,1.34-1.52,2-2.25Z" transform="translate(-244.16 -41.44)"/><path class="cls-1" d="M411,200.37,407.18,198l.46-.56c.62-.76,1.29-1.51,2.05-2.3l.35-.36,3.92,2.4-.55.56c-.68.68-1.36,1.42-2,2.22Zm-2-2.68,1.72,1.05,1.19-1.31-1.73-1.06C409.83,196.81,409.43,197.25,409.06,197.69Z" transform="translate(-244.16 -41.44)"/><path class="cls-2" d="M404.4,204.08l2.7,1.66c.49-.87,1-1.72,1.55-2.54l-2.73-1.68C405.38,202.35,404.88,203.2,404.4,204.08Z" transform="translate(-244.16 -41.44)"/><path class="cls-1" d="M407.33,206.61l-3.76-2.31.29-.52c.47-.87,1-1.74,1.54-2.6l.33-.51,3.8,2.34-.36.53c-.53.81-1.05,1.65-1.52,2.5Zm-2.09-2.75,1.64,1c.29-.5.59-1,.9-1.48l-1.66-1C405.81,202.86,405.52,203.36,405.24,203.86Z" transform="translate(-244.16 -41.44)"/><polygon class="cls-2" points="164.58 184.59 179.71 193.31 180.67 190.43 165.56 181.72 164.58 184.59"/><path class="cls-1" d="M424.22,235.67,408,226.32l1.39-4.07,16.21,9.33Zm-14.72-9.92,14,8.08.56-1.68-14-8.07Z" transform="translate(-244.16 -41.44)"/><polygon class="cls-2" points="162.35 191.55 177.49 200.27 178.45 197.39 163.34 188.69 162.35 191.55"/><path class="cls-1" d="M422,242.63l-16.24-9.35,1.4-4.07,16.2,9.33Zm-14.73-9.92,14,8.08.56-1.68-14-8.07Z" transform="translate(-244.16 -41.44)"/><polygon class="cls-2" points="159.91 198.1 175.04 206.82 176 203.94 160.9 195.23 159.91 198.1"/><path class="cls-1" d="M419.55,249.18l-16.23-9.36,1.39-4.07,16.21,9.34Zm-14.72-9.92,14,8.08.55-1.68-14-8.07Z" transform="translate(-244.16 -41.44)"/><polygon class="cls-2" points="154.9 179.01 157.76 180.79 158.72 177.91 155.88 176.14 154.9 179.01"/><path class="cls-1" d="M402.27,223.17l-4-2.46,1.4-4.07,3.92,2.44Zm-2.46-3,1.77,1.1.56-1.66-1.76-1.1Z" transform="translate(-244.16 -41.44)"/><polygon class="cls-2" points="152.67 185.97 155.54 187.75 156.5 184.87 153.65 183.1 152.67 185.97"/><path class="cls-1" d="M400,230.14l-4-2.47,1.4-4.07,3.93,2.44Zm-2.46-3,1.78,1.1.55-1.66-1.76-1.1Z" transform="translate(-244.16 -41.44)"/><polygon class="cls-2" points="150.23 192.51 153.09 194.3 154.06 191.42 151.21 189.65 150.23 192.51"/><path class="cls-1" d="M397.6,236.68l-4-2.46,1.4-4.07,3.93,2.44Zm-2.46-3,1.78,1.1.55-1.66-1.76-1.1Z" transform="translate(-244.16 -41.44)"/><rect class="cls-1" x="398.23" y="236.62" width="1.25" height="38.13" transform="translate(-268.91 426.42) rotate(-59.27)"/><rect class="cls-1" x="390.91" y="245.69" width="1.25" height="21.96" transform="translate(-273.33 420.6) rotate(-59.27)"/><rect class="cls-1" x="414.06" y="198.6" width="1.25" height="38.13" transform="translate(-228.49 421.43) rotate(-59.27)"/><rect class="cls-1" x="388.04" y="248.4" width="1.25" height="21.96" transform="translate(-277.08 419.46) rotate(-59.27)"/><rect class="cls-1" x="400.79" y="232.69" width="1.25" height="21.96" transform="translate(-257.34 422.74) rotate(-59.27)"/><path class="cls-2" d="M413.79,126.79a6.3,6.3,0,0,1-3-1,14.92,14.92,0,0,1-3.76-3.1l-.09-.1v-4l.62.68a26.86,26.86,0,0,0,2.2,2.21,10.05,10.05,0,0,0,1.6,1.2c.68.39,1,.39,1.12.36s.21-.22.21-.56a1.79,1.79,0,0,0-.18-.75,5.83,5.83,0,0,0-.58-1c-.28-.37-.84-1-1.66-2a18.37,18.37,0,0,1-1.82-2.31,10,10,0,0,1-1-2,6.44,6.44,0,0,1-.38-2.17c0-1.48.47-2.42,1.39-2.78s2.05-.11,3.54.74a12.26,12.26,0,0,1,2,1.43c.62.55,1.27,1.19,1.95,1.91l.16.18-1.21,2.66-.36-.39c-.68-.71-1.25-1.26-1.69-1.65a9.53,9.53,0,0,0-1.28-.93c-.56-.32-.8-.28-.88-.25s-.2.09-.2.53a1.72,1.72,0,0,0,.15.69,4.07,4.07,0,0,0,.49.84c.24.32.82,1,1.72,2a16.48,16.48,0,0,1,2.55,3.53,6.89,6.89,0,0,1,.71,3c0,1.52-.51,2.46-1.51,2.81A2.71,2.71,0,0,1,413.79,126.79Zm-6.12-4.49a14,14,0,0,0,3.49,2.84c1.4.81,2.48,1.09,3.21.84s1-.94,1-2.13a6.25,6.25,0,0,0-.64-2.7,15.87,15.87,0,0,0-2.44-3.37c-.93-1-1.51-1.73-1.76-2.08a4.84,4.84,0,0,1-.58-1,2.49,2.49,0,0,1-.19-1,1.15,1.15,0,0,1,.63-1.19,1.73,1.73,0,0,1,1.52.29,9,9,0,0,1,1.39,1c.38.32.84.77,1.37,1.31l.57-1.25c-.6-.64-1.18-1.2-1.73-1.69a11.27,11.27,0,0,0-1.87-1.34c-1.27-.73-2.25-1-2.91-.71s-.94.95-.94,2.12a5.66,5.66,0,0,0,.33,1.92,9.46,9.46,0,0,0,.92,1.86,17.65,17.65,0,0,0,1.74,2.22c.85,1,1.42,1.63,1.7,2a6.19,6.19,0,0,1,.67,1.09,2.54,2.54,0,0,1,.24,1c0,.88-.41,1.17-.75,1.26a2.4,2.4,0,0,1-1.66-.44,10.83,10.83,0,0,1-1.72-1.28c-.46-.41-1-.94-1.62-1.59Z" transform="translate(-244.16 -41.44)"/><path class="cls-2" d="M427.35,135.11l-2.76-1.58-.3-1.4a1.91,1.91,0,0,1-1.13.29,4.36,4.36,0,0,1-2-.66,7.15,7.15,0,0,1-2.77-2.74,7.66,7.66,0,0,1-.93-3.79v-8.08l3.42,2V126a4.72,4.72,0,0,0,.35,1.93,2.5,2.5,0,0,0,1.07,1.16c.58.33,1,.38,1.18.15s.42-.73.42-2.38v-6l3.43,2Zm-2.12-2.05,1.4.81V123.26l-2-1.15v4.76a4.6,4.6,0,0,1-.59,2.85c-.32.37-.94.67-2.09,0a3.19,3.19,0,0,1-1.36-1.48,5.35,5.35,0,0,1-.42-2.23v-6.47l-2-1.15v6.84a7,7,0,0,0,.84,3.44,6.52,6.52,0,0,0,2.5,2.47,3.58,3.58,0,0,0,1.65.56,1,1,0,0,0,.93-.38l.2-.25.55.32Z" transform="translate(-244.16 -41.44)"/><path class="cls-2" d="M432.88,138.31l-3.42-2V124.06l2.73,1.58.33,1.78a2.1,2.1,0,0,1,1.06-.51,3,3,0,0,1,1.95.44h0a6.13,6.13,0,0,1,1,.66l.15.12-.27,3.72-.55-.49a4.55,4.55,0,0,0-.74-.52c-.74-.42-1.32-.56-1.68-.38s-.52.64-.52,1.41Zm-2.7-2.39,2,1.15v-5.2c0-1.07.31-1.76.92-2.06a2.51,2.51,0,0,1,2.35.41l.31.19.14-2a7,7,0,0,0-.72-.47h0a2.24,2.24,0,0,0-1.46-.36,1.48,1.48,0,0,0-1,.68l-.19.28-.57-.33-.39-2.15-1.37-.79Z" transform="translate(-244.16 -41.44)"/><path class="cls-2" d="M444.08,144.89,440.82,143l-4.05-14.61,3.72,2.15,1.95,7.77c.05.2.09.4.13.59l0-.11,2.06-5.84,3.47,2Zm-2.64-2.36,2.29,1.32,3.5-8.59L445.05,134l-1.76,5a8.58,8.58,0,0,0-.38,2l0,.59-.68-.39-.06-.22a17.92,17.92,0,0,0-.39-2.52L439.87,131l-1.93-1.11Z" transform="translate(-244.16 -41.44)"/><path class="cls-2" d="M457.43,151.72h-.36a5.17,5.17,0,0,1-1.63-.28,12,12,0,0,1-2-1h0a10.56,10.56,0,0,1-3.87-3.81,10.39,10.39,0,0,1-1.39-5.28c0-2.06.45-3.38,1.4-4s2.24-.51,3.82.41a9.05,9.05,0,0,1,3.41,3.4,9.4,9.4,0,0,1,1.21,4.67V148l-6.32-3.66a4.64,4.64,0,0,0,.57,1.64,4.46,4.46,0,0,0,1.66,1.65,8.27,8.27,0,0,0,1.61.73,6.29,6.29,0,0,0,1.58.26h.35Zm-3.67-1.87a10.31,10.31,0,0,0,1.9.9,4.86,4.86,0,0,0,1,.23v-1.69a7.44,7.44,0,0,1-1.42-.28,8.34,8.34,0,0,1-1.76-.79,5.2,5.2,0,0,1-1.93-1.91,5.79,5.79,0,0,1-.73-2.64l0-.65,6.41,3.7v-.89a8.55,8.55,0,0,0-1.12-4.31,8.3,8.3,0,0,0-3.14-3.14c-1.33-.77-2.36-.91-3.06-.43s-1.08,1.65-1.08,3.43a9.58,9.58,0,0,0,1.29,4.91,9.86,9.86,0,0,0,3.61,3.56Zm1.7-5.42-4.54-2.62,0-.22a2.13,2.13,0,0,1,.71-1.73,1.53,1.53,0,0,1,1.73.13,3.93,3.93,0,0,1,1.5,1.55,4.85,4.85,0,0,1,.57,2.26Zm-3.79-3,3,1.73a3.75,3.75,0,0,0-.42-1.26,3.3,3.3,0,0,0-1.23-1.28c-.44-.25-.76-.31-1-.17A1.43,1.43,0,0,0,451.67,141.42Z" transform="translate(-244.16 -41.44)"/><path class="cls-2" d="M462.34,159.9a4.35,4.35,0,0,1-2.12-.66,10.7,10.7,0,0,1-1.43-1l-.12-.1V154.7l.59.51a7.31,7.31,0,0,0,1,.71,1.15,1.15,0,0,0,1,.19,1.24,1.24,0,0,0,.62-.83l.12-.36-4.15-14.38,3.87,2.23,1.9,7.67.09.37,2-5.75,3.55,2-4.31,10.78a2.88,2.88,0,0,1-1.89,1.94A2.25,2.25,0,0,1,462.34,159.9Zm-3-2.11a10.67,10.67,0,0,0,1.2.82,3,3,0,0,0,2.22.52,2.21,2.21,0,0,0,1.4-1.52l4.08-10.2-2.25-1.3-1.69,5a7.18,7.18,0,0,0-.37,1.68l-.05.56-.65-.37-.07-.23a12.71,12.71,0,0,0-.31-2.11l-1.84-7.37L459,142.05l3.72,12.89-.2.57a1.9,1.9,0,0,1-1,1.27,1.81,1.81,0,0,1-1.56-.24,5.84,5.84,0,0,1-.53-.33Z" transform="translate(-244.16 -41.44)"/><path class="cls-1" d="M414.11,122q0,2-1.26,2.46c-.85.29-2,0-3.52-.86a14.76,14.76,0,0,1-3.67-3v-3a31,31,0,0,0,2.22,2.23,10.59,10.59,0,0,0,1.66,1.24,2.07,2.07,0,0,0,1.39.4c.32-.08.48-.38.48-.91a2.18,2.18,0,0,0-.21-.9,5.92,5.92,0,0,0-.62-1c-.28-.37-.84-1-1.68-2a17.77,17.77,0,0,1-1.78-2.26,9.33,9.33,0,0,1-.95-1.93,6,6,0,0,1-.36-2c0-1.32.39-2.14,1.17-2.45s1.85-.06,3.22.73a12.05,12.05,0,0,1,1.93,1.39,25.62,25.62,0,0,1,1.92,1.88l-.89,2q-1-1.1-1.71-1.68a8.87,8.87,0,0,0-1.34-1,1.46,1.46,0,0,0-1.19-.28c-.28.12-.42.41-.42.86a2,2,0,0,0,.17.83,4.48,4.48,0,0,0,.53.91c.25.34.83,1,1.74,2.06a15.81,15.81,0,0,1,2.5,3.45A6.62,6.62,0,0,1,414.11,122Z" transform="translate(-244.16 -41.44)"/><path class="cls-1" d="M423.26,131.44l-.36-1.68-.14-.08a1.4,1.4,0,0,1-1.23.52,4,4,0,0,1-1.82-.61,6.85,6.85,0,0,1-2.63-2.6,7.33,7.33,0,0,1-.89-3.62v-7.46l2.71,1.56v6.69a4.91,4.91,0,0,0,.38,2.07,2.81,2.81,0,0,0,1.21,1.32c.76.44,1.3.46,1.64.07a4.34,4.34,0,0,0,.51-2.61v-5.38l2.7,1.56v11.44Z" transform="translate(-244.16 -41.44)"/><path class="cls-1" d="M433.71,125.81a6.79,6.79,0,0,1,.91.62l-.21,2.81a4.23,4.23,0,0,0-.79-.57c-.87-.49-1.54-.63-2-.39s-.72.81-.72,1.73v5.82l-2.71-1.56V122.83l2.05,1.18.4,2.16.13.07a1.85,1.85,0,0,1,1.25-.83A2.54,2.54,0,0,1,433.71,125.81Z" transform="translate(-244.16 -41.44)"/><path class="cls-1" d="M439.48,140.91l-3.77-13.62,2.83,1.63,1.91,7.62a17.37,17.37,0,0,1,.4,2.58l0,0a8.6,8.6,0,0,1,.4-2.12l1.91-5.41,2.82,1.63-3.77,9.26Z" transform="translate(-244.16 -41.44)"/><path class="cls-1" d="M451.94,148.3a10,10,0,0,1-5.09-8.78c0-1.92.41-3.16,1.24-3.73s2-.43,3.45.42a8.7,8.7,0,0,1,3.27,3.27A8.93,8.93,0,0,1,456,144v1.52l-6.39-3.69a5.19,5.19,0,0,0,.68,2.47,4.71,4.71,0,0,0,1.79,1.78,7.92,7.92,0,0,0,1.69.76,6.15,6.15,0,0,0,1.67.28v2.41a4.81,4.81,0,0,1-1.52-.26A11.16,11.16,0,0,1,451.94,148.3Zm-.39-9.86c-.57-.33-1-.38-1.34-.15a1.89,1.89,0,0,0-.56,1.47l3.79,2.19a4.34,4.34,0,0,0-.52-2.09A3.54,3.54,0,0,0,451.55,138.44Z" transform="translate(-244.16 -41.44)"/><path class="cls-1" d="M456.76,139.44l3,1.71,1.87,7.52a13.22,13.22,0,0,1,.33,2.17l.05,0a6.82,6.82,0,0,1,.38-1.76l1.83-5.38,2.9,1.67-4.19,10.49a2.54,2.54,0,0,1-1.64,1.73,3.38,3.38,0,0,1-2.5-.55,9.28,9.28,0,0,1-1.37-1v-2.48a6.74,6.74,0,0,0,1.06.75,1.48,1.48,0,0,0,1.26.22,1.57,1.57,0,0,0,.83-1.05l.16-.47Z" transform="translate(-244.16 -41.44)"/><path class="cls-1" d="M292.52,210.26a6.36,6.36,0,0,0-.62,4.35h0a6.38,6.38,0,0,0,3.18,1l8.06.4a4.61,4.61,0,0,0,2.1-.41h0a2.93,2.93,0,0,0,1.54-1.63h0a1.34,1.34,0,0,0-.67-1.69L297.68,208Z" transform="translate(-244.16 -41.44)"/><path class="cls-1" d="M282.73,219.52l-.26,6.06a5.79,5.79,0,0,0,.84,3.26l.27.44a4.71,4.71,0,0,0,3.31,2.21l1.47.24a2,2,0,0,0,1.41-.32h0a1.86,1.86,0,0,0,.73-2.09L289.13,225h0a23.62,23.62,0,0,1-1-4l-.41-2.57Z" transform="translate(-244.16 -41.44)"/><rect class="cls-3" x="285.12" y="223.69" width="3.66" height="0.9" transform="translate(-287.74 29.97) rotate(-13.19)"/><rect class="cls-3" x="285.85" y="225.49" width="3.66" height="0.9" transform="translate(-288.15 30.22) rotate(-13.2)"/><rect class="cls-3" x="299.99" y="209.98" width="2.18" height="0.9" transform="translate(-297.14 266.83) rotate(-50.4)"/><rect class="cls-3" x="301.5" y="211.18" width="2.18" height="0.9" transform="translate(-297.52 268.43) rotate(-50.4)"/><path class="cls-3" d="M291.1,189.15s1.32,11.73,1.91,20.74a1,1,0,0,0,.57.84,5.83,5.83,0,0,0,5.82-.45,1.66,1.66,0,0,0,.78-1.43c-.09-3.42-.34-16.34.53-24.52,1-9.5-4.59-9-4.59-9l-6.61,7.3Z" transform="translate(-244.16 -41.44)"/><path class="cls-1" d="M296.09,211.76a6.26,6.26,0,0,1-2.71-.62,1.42,1.42,0,0,1-.83-1.22c-.57-8.68-1.84-20-1.91-20.68L289,182.53l6.89-7.61.18,0a4.45,4.45,0,0,1,3.35,1.34c1.56,1.58,2.15,4.31,1.75,8.14-.85,8.08-.62,20.76-.53,24.46a2.13,2.13,0,0,1-1,1.84A6.55,6.55,0,0,1,296.09,211.76Zm-6.07-29,1.54,6.31c0,.12,1.33,11.84,1.91,20.76a.55.55,0,0,0,.32.45,5.33,5.33,0,0,0,5.36-.42,1.18,1.18,0,0,0,.56-1c-.09-3.71-.32-16.44.53-24.58.37-3.48-.14-6-1.48-7.39a3.53,3.53,0,0,0-2.43-1.06Z" transform="translate(-244.16 -41.44)"/><path class="cls-3" d="M282.88,192.71a72.31,72.31,0,0,0-.73,15.75,59.34,59.34,0,0,1,0,11.43A1,1,0,0,0,283,221a8.33,8.33,0,0,0,4.5-.55,3.27,3.27,0,0,0,1.84-3c-.12-4.1,1.74-17.07,4.93-27.73,3.87-12.94-8.13.39-8.13.39Z" transform="translate(-244.16 -41.44)"/><path class="cls-1" d="M284.36,221.55a12.07,12.07,0,0,1-1.41-.08,1.47,1.47,0,0,1-1.3-1.64,58.78,58.78,0,0,0,0-11.33,73.74,73.74,0,0,1,.73-15.87l0-.17,3.41-2.74c1.05-1.17,6.64-7.19,8.83-6,1.08.61,1.09,2.54,0,6.07-3.12,10.45-5,23.52-4.91,27.58a3.72,3.72,0,0,1-2.1,3.47A7.79,7.79,0,0,1,284.36,221.55ZM283.31,193a71.58,71.58,0,0,0-.69,15.46,59.64,59.64,0,0,1-.05,11.52.56.56,0,0,0,.5.6,7.94,7.94,0,0,0,4.24-.51,2.78,2.78,0,0,0,1.57-2.6c-.12-4.22,1.75-17.18,4.95-27.87,1.24-4.15.63-4.87.41-5-1-.56-4.81,2.58-7.74,5.83Z" transform="translate(-244.16 -41.44)"/><path class="cls-2" d="M293.09,130.13a7.43,7.43,0,0,1,7.07,0c2.66,1.41,2.88,17.56,2.88,17.56s-1,4.76.67,16.25-1,25.88-1,25.88-4.42-4.72-5.17-20-2.7-35.88-2.7-35.88Z" transform="translate(-244.16 -41.44)"/><path class="cls-1" d="M303,190.82l-.63-.68c-.19-.2-4.55-5-5.3-20.32-.72-14.64-2.56-34.38-2.69-35.78L292.5,130l.35-.22a7.87,7.87,0,0,1,7.53,0c2.76,1.47,3.09,15.22,3.13,18v.1c0,.05-.94,4.85.67,16.1,1.64,11.43-1,25.88-1,26Zm-9.28-60.48,1.58,3.54c0,.2,2,20.76,2.7,35.9.56,11.44,3.22,16.92,4.43,18.87.58-3.57,2.19-15.17.84-24.64-1.57-10.94-.78-15.79-.67-16.36-.09-6.14-.88-16.18-2.63-17.11A6.94,6.94,0,0,0,293.7,130.34Z" transform="translate(-244.16 -41.44)"/><path class="cls-1" d="M300.63,140.76v-7.21a2.55,2.55,0,0,1,1.29-2.2L316,123.29a.73.73,0,0,1,1.1.61v17.29a2.54,2.54,0,0,1-1.28,2.19l-14.1,8.13a.72.72,0,0,1-1.1-.61Z" transform="translate(-244.16 -41.44)"/><path class="cls-1" d="M301.36,152.08a1.17,1.17,0,0,1-.6-.16,1.19,1.19,0,0,1-.6-1V133.55a3,3,0,0,1,1.53-2.6l14.09-8.07a1.2,1.2,0,0,1,1.2,0,1.15,1.15,0,0,1,.59,1v17.29a3,3,0,0,1-1.51,2.59L302,151.92A1.17,1.17,0,0,1,301.36,152.08Zm15-28.43a.25.25,0,0,0-.14,0l-14.09,8.07a2.07,2.07,0,0,0-1,1.79V150.9a.23.23,0,0,0,.12.21.25.25,0,0,0,.27,0L315.6,143a2.08,2.08,0,0,0,1-1.79V123.9a.25.25,0,0,0-.12-.21A.39.39,0,0,0,316.38,123.65Z" transform="translate(-244.16 -41.44)"/><path class="cls-3" d="M302.45,141.49v-7.2a2.55,2.55,0,0,1,1.29-2.21L317.83,124a.72.72,0,0,1,1.09.61v17.29a2.53,2.53,0,0,1-1.27,2.19l-14.1,8.13a.72.72,0,0,1-1.1-.61Z" transform="translate(-244.16 -41.44)"/><path class="cls-1" d="M303.17,152.81a1.2,1.2,0,0,1-.6-.16,1.16,1.16,0,0,1-.59-1V134.29a3,3,0,0,1,1.52-2.61l14.09-8.06a1.19,1.19,0,0,1,1.21,0,1.15,1.15,0,0,1,.59,1v17.29a3,3,0,0,1-1.51,2.6l-14.1,8.13A1.21,1.21,0,0,1,303.17,152.81Zm15-28.42-.13,0L304,132.49a2.09,2.09,0,0,0-1.06,1.8v17.34a.23.23,0,0,0,.13.21.23.23,0,0,0,.27,0l14.1-8.13a2.07,2.07,0,0,0,1-1.79V124.63a.24.24,0,0,0-.13-.21A.32.32,0,0,0,318.19,124.39Z" transform="translate(-244.16 -41.44)"/><path class="cls-2" d="M282.64,154.35s-.74,30.36-2.94,41.49c0,0,12.51,3.51,16.58-10.54s1.68-30,1.68-30l-1.68-8.65L288,130.58l-6.34,4-2.48,2.2Z" transform="translate(-244.16 -41.44)"/><path class="cls-1" d="M283,196.67a14.68,14.68,0,0,1-3.45-.38l-.42-.12.09-.42c2.12-10.75,2.89-39.95,2.92-41.36l-3.47-17.8,2.68-2.37,6.83-4.3,8.53,16.67,1.67,8.65c0,.18,2.37,16.19-1.68,30.19C293.93,195.08,287.18,196.67,283,196.67Zm-2.79-1.18c2.19.47,12.07,1.86,15.59-10.32,4-13.8,1.69-29.62,1.67-29.77l-1.66-8.57-8-15.59L281.93,135l-2.22,2,3.39,17.38v.05C283.1,154.66,282.36,184.11,280.24,195.49Z" transform="translate(-244.16 -41.44)"/><path class="cls-2" d="M285.23,128.26s1,.94.38,3.62l-.38,1.47s3.53,6.19,9.53,6.44c0,0-2-5.48-1.23-8.31s-5-3.22-5-3.22Z" transform="translate(-244.16 -41.44)"/><path class="cls-1" d="M295.44,140.28l-.7,0c-6.19-.26-9.76-6.41-9.91-6.67l-.09-.16.42-1.65c.58-2.32-.24-3.17-.24-3.17l-.81-.8h4.45c.19,0,3.91.28,5.11,2a2.11,2.11,0,0,1,.31,1.83c-.73,2.66,1.2,8,1.22,8Zm-9.71-7c.57.9,3.61,5.39,8.36,6-.52-1.59-1.66-5.55-1-7.91a1.16,1.16,0,0,0-.16-1.05c-.79-1.11-3.44-1.52-4.39-1.59h-2.48a5.37,5.37,0,0,1,0,3.28Z" transform="translate(-244.16 -41.44)"/><path class="cls-3" d="M292.61,137.36s.81-1.6.34-5.46l2.6.09a10.05,10.05,0,0,1,.21,6.16c-.92,3.65.52,8.53.52,8.53A98.38,98.38,0,0,0,292.61,137.36Z" transform="translate(-244.16 -41.44)"/><path class="cls-1" d="M295.84,146.83a96.75,96.75,0,0,0-3.64-9.25l-.12-.21.11-.22s.74-1.59.3-5.19l-.07-.54,3.44.12.12.26a10.44,10.44,0,0,1,.23,6.46c-.88,3.5.5,8.24.52,8.28Zm-2.72-9.49c.56,1.09,1.26,2.81,1.89,4.47a13.31,13.31,0,0,1,.3-3.78,10.1,10.1,0,0,0-.08-5.58l-1.76-.07A11.57,11.57,0,0,1,293.12,137.34Z" transform="translate(-244.16 -41.44)"/><path class="cls-3" d="M285.93,131.66s-.72,3.84,6.68,5.7c0,0,3,4.9,3.67,9.32a.11.11,0,0,1-.2.06,15.94,15.94,0,0,0-5.06-6.1,1.72,1.72,0,0,1-.62-.79l-.5-1.46a.32.32,0,0,0-.4-.19l-1.64.61a.91.91,0,0,1-.67,0c-1-.42-3.65-1.76-4.1-3.92-.54-2.63.64-4.41,2.74-4.74Z" transform="translate(-244.16 -41.44)"/><path class="cls-1" d="M296.17,147.26a.57.57,0,0,1-.51-.32,15.67,15.67,0,0,0-4.9-5.92,2.06,2.06,0,0,1-.79-1l-.46-1.3-1.49.54a1.31,1.31,0,0,1-1,0c-1.15-.49-3.88-1.9-4.37-4.24a4.78,4.78,0,0,1,.55-3.76,3.72,3.72,0,0,1,2.57-1.54l.5-.08.13,2.09v.06c0,.16-.46,3.46,6.34,5.17l.18.05.1.16c.13.2,3.09,5,3.74,9.49a.56.56,0,0,1-.4.62A.47.47,0,0,1,296.17,147.26Zm-6.56-9.54a.76.76,0,0,1,.33.08.73.73,0,0,1,.4.44l.5,1.45a1.11,1.11,0,0,0,.45.56,15.68,15.68,0,0,1,4,4.17,33.17,33.17,0,0,0-3-6.65c-7.11-1.85-6.92-5.57-6.85-6.13l-.06-.93a2.68,2.68,0,0,0-1.44,1,3.88,3.88,0,0,0-.41,3c.41,2,3,3.24,3.83,3.58a.4.4,0,0,0,.32,0l1.64-.6A.86.86,0,0,1,289.61,137.72Z" transform="translate(-244.16 -41.44)"/><path class="cls-2" d="M286.35,129c.51,1.34,2.24,3.63,8.14,3.58a1.18,1.18,0,0,0,1.12-.84,17.63,17.63,0,0,0-.27-11l-.36-1.67-9,1.84-.65,4s-2.08-.22-1.45,2c.29,1,.85,1.28,1.33,1.33A1.29,1.29,0,0,1,286.35,129Z" transform="translate(-244.16 -41.44)"/><path class="cls-1" d="M294.29,133.08c-6,0-7.82-2.42-8.38-3.87h0a.82.82,0,0,0-.72-.49,2.47,2.47,0,0,1-1.51-3.62,1.79,1.79,0,0,1,1.27-.6l.64-4,9.74-2,.46,2.12a18.11,18.11,0,0,1,.27,11.26,1.63,1.63,0,0,1-1.57,1.17Zm-7.51-4.2c.48,1.24,2.14,3.34,7.7,3.27a.72.72,0,0,0,.69-.51,17.26,17.26,0,0,0-.27-10.73l-.28-1.29-8.21,1.69-.68,4.15-.43,0a1.19,1.19,0,0,0-.91.28,1.31,1.31,0,0,0,0,1.1c.27.93.77,1,.93,1a1.72,1.72,0,0,1,1.5,1.08Z" transform="translate(-244.16 -41.44)"/><path class="cls-1" d="M284.49,121.49a3.54,3.54,0,0,1-1.15-5.6,4.17,4.17,0,0,1,2-1.2c2.59-.59,4.77,2.19,7.37.89,3.26-1.62-.05-3-1.19-2,0,0,1.92-2.33,4.14-.41,2.77,2.4,1.07,7.39-3.1,7.55a13.17,13.17,0,0,0-4.78,1,3.58,3.58,0,0,1-2.85,0Z" transform="translate(-244.16 -41.44)"/><path class="cls-1" d="M282.15,125.14a5.65,5.65,0,0,1-.78-4.29c.49-1.55,3.25-.71,4.72-.14a1,1,0,0,1,.62,1.3l-.84,2.51a1.25,1.25,0,0,1-1.09.85l-1.86.14Z" transform="translate(-244.16 -41.44)"/><path class="cls-2" d="M297.54,143.51s-.29-3,1.24-4.18l.67-.31v2.52a.57.57,0,0,0,.9.46,9.26,9.26,0,0,0,2.89-3c.85-1.8,2-.29,1.74,2.24s-4.82,4.65-4.82,4.65Z" transform="translate(-244.16 -41.44)"/><path class="cls-1" d="M300.08,146.46l-3-2.73,0-.18c0-.13-.28-3.25,1.42-4.58l.09-.06,1.75-.68v3.25c.07.09.11.1.15.07a7.67,7.67,0,0,0,2.34-2.72c.54-1.16,1.22-1.1,1.49-1,.87.25,1.34,1.73,1.13,3.52-.33,2.76-4.88,4.92-5.08,5ZM298,143.29l2.25,2.06c1.34-.68,4.07-2.4,4.28-4.14s-.29-2.48-.46-2.51-.2.1-.39.52a9.5,9.5,0,0,1-3.06,3.15,1,1,0,0,1-1.62-.82v-1.79C298,140.66,298,142.69,298,143.29Z" transform="translate(-244.16 -41.44)"/><path class="cls-2" d="M281.69,134.56l-2.4,2.13a3.12,3.12,0,0,0-1.07,2.14c-.24,3.28-.36,12,4.49,18.69a3.2,3.2,0,0,0,2.3,1.29h0a5,5,0,0,0,3.77-1.3c2.17-2,6.2-5.86,9.76-9.51a.83.83,0,0,0,0-1.17l-2.2-2.28a.9.9,0,0,0-1.15-.11l-8.43,7.47a50.55,50.55,0,0,0-3-12.58Z" transform="translate(-244.16 -41.44)"/><path class="cls-1" d="M285.42,159.29l-.45,0a3.68,3.68,0,0,1-2.64-1.48c-4.9-6.72-4.83-15.52-4.57-19a3.58,3.58,0,0,1,1.22-2.45l2.4-2.12.62.69L279.6,137a2.69,2.69,0,0,0-.91,1.83c-.25,3.37-.33,11.91,4.39,18.38a2.69,2.69,0,0,0,2,1.1,4.43,4.43,0,0,0,3.41-1.17c2.1-2,6.16-5.82,9.75-9.49a.37.37,0,0,0,0-.52l-2.2-2.29a.41.41,0,0,0-.54-.05l-9.09,8.06-.07-.93a51,51,0,0,0-2.95-12.45l.87-.33a52.8,52.8,0,0,1,2.91,11.8l7.76-6.88a1.36,1.36,0,0,1,1.78.13l2.21,2.29a1.3,1.3,0,0,1,0,1.82c-3.6,3.68-7.67,7.54-9.77,9.52A5.41,5.41,0,0,1,285.42,159.29Z" transform="translate(-244.16 -41.44)"/><path class="cls-3" d="M300,146.37l-1.09.82-2.61-2.7,1.05-.89a.47.47,0,0,1,.64,0l2.06,2.05A.46.46,0,0,1,300,146.37Z" transform="translate(-244.16 -41.44)"/><path class="cls-1" d="M298.84,147.81l-3.24-3.36,1.42-1.2a.94.94,0,0,1,1.28.05l2.06,2a.92.92,0,0,1-.1,1.39ZM297,144.52l2,2,.76-.57.28.37-.28-.37-2.06-2Z" transform="translate(-244.16 -41.44)"/><path class="cls-1" d="M287.76,145.68l.17.71a.45.45,0,0,0,.67.27l1.92-1.16a1,1,0,0,0,.48-1l-.13-.76a.46.46,0,0,0-.68-.31l-2,1.18A1,1,0,0,0,287.76,145.68Z" transform="translate(-244.16 -41.44)"/><path class="cls-1" d="M288.36,147.2a.85.85,0,0,1-.35-.08.87.87,0,0,1-.53-.62l-.17-.71a1.45,1.45,0,0,1,.68-1.6l2-1.18a.91.91,0,0,1,.86,0,.89.89,0,0,1,.52.67l.13.76a1.46,1.46,0,0,1-.7,1.5l-1.92,1.17A.9.9,0,0,1,288.36,147.2Zm-.15-1.63.17.71,1.9-1.18a.57.57,0,0,0,.26-.56l-.13-.76-1.94,1.2a.55.55,0,0,0-.26.59Z" transform="translate(-244.16 -41.44)"/><path class="cls-1" d="M292.86,128.43l-.25-.89,1.08-.31a.28.28,0,0,0,.17-.13.24.24,0,0,0,0-.2l-.63-2,.88-.29.64,2a1.17,1.17,0,0,1-.09.93,1.19,1.19,0,0,1-.74.59Z" transform="translate(-244.16 -41.44)"/><rect class="cls-1" x="285.72" y="126.29" width="0.93" height="1.2" transform="matrix(0.3, -0.95, 0.95, 0.3, -165.02, 320.27)"/><path class="cls-1" d="M291.37,171.07a2.1,2.1,0,0,1-2-1.75l-.79-4.56a1.22,1.22,0,0,1,.23-1,1.18,1.18,0,0,1,.82-.46l4-.37a1.24,1.24,0,0,1,.91.31,1.27,1.27,0,0,1,.39.92l0,4.66a2.06,2.06,0,0,1-1.85,2.06l-1.47.14Zm2.34-7.17h0l-4,.37a.22.22,0,0,0-.17.1.29.29,0,0,0-.06.23l.8,4.56a1.15,1.15,0,0,0,1.22,1l1.46-.13a1.15,1.15,0,0,0,1-1.15l0-4.66a.27.27,0,0,0-.1-.22A.21.21,0,0,0,293.71,163.9Z" transform="translate(-244.16 -41.44)"/><rect class="cls-1" x="289.89" y="158.8" width="0.93" height="4.93" transform="translate(-262.42 -2.94) rotate(-7.36)"/><rect class="cls-1" x="47.98" y="119.06" width="0.93" height="2.93"/><path class="cls-1" d="M291.13,124.57c.23.68.09,1.33-.31,1.46s-.91-.32-1.14-1-.09-1.34.31-1.47S290.9,123.89,291.13,124.57Z" transform="translate(-244.16 -41.44)"/><path class="cls-1" d="M296,123.18c.1.71-.14,1.33-.56,1.39s-.84-.46-.95-1.17.14-1.33.55-1.39S295.84,122.47,296,123.18Z" transform="translate(-244.16 -41.44)"/><rect class="cls-1" x="292.13" y="129.6" width="2.24" height="0.93" transform="translate(-254.06 -16.33) rotate(-4.82)"/><rect class="cls-3" x="301.37" y="131.76" width="0.93" height="1.95" transform="translate(-204.85 290.82) rotate(-60.97)"/><rect class="cls-3" x="315.22" y="123.42" width="0.93" height="1.95" transform="translate(-190.41 298.64) rotate(-60.98)"/><polygon class="cls-3" points="57.95 109.22 56.24 108.28 56.69 107.47 58.4 108.41 57.95 109.22"/><path class="cls-1" d="M306.41,137.82l4.13,6,5.77-13.56c.08-.18-.09-.24-.18-.06L310.67,140l-4.07-2.45C306.5,137.5,306.35,137.73,306.41,137.82Z" transform="translate(-244.16 -41.44)"/><path class="cls-3" d="M311.25,242.62l-20,0a.41.41,0,0,0-.41.42v6.16h0a2.35,2.35,0,0,0,1.37,1.74l6,3.48a6.27,6.27,0,0,0,5.63.23l6.82-3.94a1.6,1.6,0,0,0,1-1.51h0V243A.41.41,0,0,0,311.25,242.62Z" transform="translate(-244.16 -41.44)"/><path class="cls-1" d="M301.42,255.86a7.18,7.18,0,0,1-3.49-.88l-6-3.47a3.31,3.31,0,0,1-1.55-1.66h-.13v-6.78a1,1,0,0,1,1-1l20,0h0a1,1,0,0,1,1,1v6.82h-.08a2.45,2.45,0,0,1-1.2,1.43l-6.82,3.94A5.66,5.66,0,0,1,301.42,255.86Zm-9.95-6.72v.05a1.83,1.83,0,0,0,1,1.25l6,3.47a5.67,5.67,0,0,0,5,.24l6.83-3.94a1.08,1.08,0,0,0,.65-.93l-.05-.66H311v-5.38l-19.58,0Z" transform="translate(-244.16 -41.44)"/><path class="cls-1" d="M311.25,242.64l-9.2,0v12.57a4.62,4.62,0,0,0,1.82-.53l6.82-3.94a1.6,1.6,0,0,0,1-1.51h0v-6.2A.41.41,0,0,0,311.25,242.64Z" transform="translate(-244.16 -41.44)"/><path class="cls-2" d="M310.69,244.16l-6.82,3.94a6.24,6.24,0,0,1-5.63-.23l-6-3.47c-1.67-1-1.85-2.42-.41-3.25l6.83-3.94a6.22,6.22,0,0,1,5.62.23l6,3.47C312,241.87,312.14,243.33,310.69,244.16Z" transform="translate(-244.16 -41.44)"/><path class="cls-1" d="M301.42,249.28a7.07,7.07,0,0,1-3.49-.88l-6-3.47a2.91,2.91,0,0,1-1.69-2.37,2.29,2.29,0,0,1,1.28-1.95l6.83-3.94a6.84,6.84,0,0,1,6.24.24l6,3.47a2.9,2.9,0,0,1,1.68,2.37A2.27,2.27,0,0,1,311,244.7l-6.82,3.94A5.66,5.66,0,0,1,301.42,249.28Zm-.34-12a4.41,4.41,0,0,0-2.13.48l-6.82,3.94c-.3.18-.67.47-.67.88s.4.91,1.07,1.3l6,3.48a5.7,5.7,0,0,0,5,.23l6.83-3.94a1.14,1.14,0,0,0,.66-.88c0-.43-.4-.92-1.07-1.3L304,238A6,6,0,0,0,301.08,237.26Z" transform="translate(-244.16 -41.44)"/><rect class="cls-1" x="54.11" y="206.75" width="1.23" height="6.55"/><rect class="cls-3" x="64.68" y="205.09" width="0.95" height="3.21"/><path class="cls-3" d="M566.6,208.31l-20,0a.41.41,0,0,0-.41.41v6.17h0a2.37,2.37,0,0,0,1.36,1.74l6,3.48a6.27,6.27,0,0,0,5.63.23l6.82-3.94a1.62,1.62,0,0,0,1-1.51h0v-6.2A.41.41,0,0,0,566.6,208.31Z" transform="translate(-244.16 -41.44)"/><path class="cls-1" d="M556.77,221.55a7.18,7.18,0,0,1-3.49-.88l-6-3.47a3.35,3.35,0,0,1-1.55-1.66h-.13v-6.79a1,1,0,0,1,1-1l20,0h0a1,1,0,0,1,1,1v6.82h-.08a2.44,2.44,0,0,1-1.2,1.42l-6.82,3.94A5.55,5.55,0,0,1,556.77,221.55Zm-9.95-6.72v0a1.88,1.88,0,0,0,1.06,1.25l6,3.47a5.63,5.63,0,0,0,5,.23l6.82-3.93a1.1,1.1,0,0,0,.66-.93l0-.67h0v-5.37l-19.58,0Z" transform="translate(-244.16 -41.44)"/><path class="cls-1" d="M566.6,208.33h-9.2v12.57a4.46,4.46,0,0,0,1.82-.52l6.82-3.94a1.62,1.62,0,0,0,1-1.51h0v-6.2A.41.41,0,0,0,566.6,208.33Z" transform="translate(-244.16 -41.44)"/><path class="cls-2" d="M566,209.85l-6.82,3.94a6.27,6.27,0,0,1-5.63-.23l-6-3.48c-1.66-1-1.84-2.41-.4-3.25l6.82-3.94a6.27,6.27,0,0,1,5.63.24l6,3.47C567.3,207.56,567.49,209,566,209.85Z" transform="translate(-244.16 -41.44)"/><path class="cls-1" d="M556.77,215a7.18,7.18,0,0,1-3.49-.88l-6-3.47a2.91,2.91,0,0,1-1.69-2.37,2.29,2.29,0,0,1,1.28-1.95l6.83-3.94a6.83,6.83,0,0,1,6.24.23l6,3.48a2.9,2.9,0,0,1,1.68,2.37,2.24,2.24,0,0,1-1.28,1.94l-6.82,3.94A5.55,5.55,0,0,1,556.77,215Zm-.34-12a4.38,4.38,0,0,0-2.13.48l-6.82,3.94a1.11,1.11,0,0,0-.67.88c0,.42.4.91,1.07,1.3l6,3.47a5.67,5.67,0,0,0,5,.24l6.82-3.94a1.13,1.13,0,0,0,.67-.88c0-.43-.4-.92-1.07-1.31l-6-3.47A5.94,5.94,0,0,0,556.43,203Z" transform="translate(-244.16 -41.44)"/><rect class="cls-1" x="309.46" y="172.44" width="1.23" height="6.55"/><rect class="cls-3" x="320.03" y="170.78" width="0.95" height="3.21"/><path class="cls-3" d="M265.18,194.61l-20,0a.41.41,0,0,0-.41.41v6.17h0a2.39,2.39,0,0,0,1.37,1.74l6,3.47a6.28,6.28,0,0,0,5.63.24l6.83-3.94a1.64,1.64,0,0,0,1-1.51h0V195A.41.41,0,0,0,265.18,194.61Z" transform="translate(-244.16 -41.44)"/><path class="cls-1" d="M255.35,207.85a7.18,7.18,0,0,1-3.49-.88l-6-3.48a3.31,3.31,0,0,1-1.55-1.66h-.12v-6.78a1,1,0,0,1,1-1l20,0a1.16,1.16,0,0,1,.73.3,1,1,0,0,1,.3.73v6.81h-.07a2.45,2.45,0,0,1-1.21,1.43l-6.82,3.94A5.63,5.63,0,0,1,255.35,207.85Zm-9.95-6.73v0c0,.43.41.88,1.06,1.26l6,3.47a5.7,5.7,0,0,0,5,.23l6.83-3.94a1.08,1.08,0,0,0,.65-.93l-.05-.66H265v-5.38l-19.57,0Z" transform="translate(-244.16 -41.44)"/><path class="cls-1" d="M265.18,194.63H256v12.57a4.62,4.62,0,0,0,1.82-.53l6.83-3.94a1.62,1.62,0,0,0,1-1.5h0V195A.41.41,0,0,0,265.18,194.63Z" transform="translate(-244.16 -41.44)"/><path class="cls-2" d="M264.63,196.15l-6.83,3.94a6.24,6.24,0,0,1-5.63-.24l-6-3.47c-1.67-1-1.85-2.42-.41-3.25l6.83-3.94a6.27,6.27,0,0,1,5.63.23l6,3.48C265.89,193.86,266.07,195.31,264.63,196.15Z" transform="translate(-244.16 -41.44)"/><path class="cls-1" d="M255.35,201.27a7.18,7.18,0,0,1-3.49-.88l-6-3.48a2.9,2.9,0,0,1-1.69-2.37,2.26,2.26,0,0,1,1.28-1.94l6.83-3.94a6.8,6.8,0,0,1,6.24.23l6,3.47a2.93,2.93,0,0,1,1.69,2.38,2.27,2.27,0,0,1-1.29,1.94l-6.82,3.94A5.63,5.63,0,0,1,255.35,201.27Zm-.34-12a4.34,4.34,0,0,0-2.12.47l-6.83,3.94a1.14,1.14,0,0,0-.66.88c0,.43.4.92,1.07,1.31l6,3.47a5.66,5.66,0,0,0,5,.23l6.83-3.94a1.12,1.12,0,0,0,.66-.87c0-.43-.4-.92-1.07-1.31l-6-3.47A6,6,0,0,0,255,189.25Z" transform="translate(-244.16 -41.44)"/><rect class="cls-1" x="8.04" y="158.73" width="1.23" height="6.55"/><rect class="cls-3" x="18.62" y="157.07" width="0.95" height="3.21"/><path class="cls-3" d="M262.69,171.43h0c-.05-.09-.2-.08-.31.12l-9.06,16.25-.76.08-2.45-1.47-.53-.64L246.16,184c-.16-.09-.43.29-.31.46l7,10.18,3.19,1.72a0,0,0,0,0,.07,0l.62-5L265,175.48l1.13-2.24a.14.14,0,0,0-.06-.19Z" transform="translate(-244.16 -41.44)"/><path class="cls-1" d="M256.05,196.92l-.27-.12L252.49,195l-.06-.1-7-10.18a.79.79,0,0,1,.15-1,.64.64,0,0,1,.81-.16l3.54,1.85.48.58,2.24,1.35.35,0,8.94-16a.72.72,0,0,1,.63-.42.71.71,0,0,1,.39.14l3.25,1.58a.58.58,0,0,1,.31.36.64.64,0,0,1,0,.47l-1.13,2.25-8.22,15.82-.63,5.13Zm-2.9-2.63,2.53,1.37.59-4.51,9.23-17.82L262.69,172l-9.08,16.28-1.16.12-2.7-1.66-.48-.56-2.61-1.34Z" transform="translate(-244.16 -41.44)"/><path class="cls-1" d="M249.26,186.22l7,10.18s.08,0,.11-.06l9.76-22.94c.13-.31-.15-.41-.31-.11l-9.24,16.57s-.07.07-.09,0l-6.89-4.14C249.42,185.67,249.15,186.05,249.26,186.22Z" transform="translate(-244.16 -41.44)"/><path class="cls-1" d="M256,196.92l-.19-.25-7-10.18a.8.8,0,0,1,.14-1,.66.66,0,0,1,.82-.16l6.51,3.92,9-16.21a.7.7,0,0,1,.91-.37.66.66,0,0,1,.26.89l-9.76,22.95a.6.6,0,0,1-.47.36Zm-5.89-10.25,6,8.81,7.14-16.77-6.45,11.56-.26.11a.49.49,0,0,1-.39,0Z" transform="translate(-244.16 -41.44)"/><path class="cls-3" d="M532.62,151.76l-20,0a.41.41,0,0,0-.41.41v6.17h0a2.37,2.37,0,0,0,1.36,1.74l6,3.48a6.27,6.27,0,0,0,5.63.23l6.82-3.94a1.61,1.61,0,0,0,1-1.51h0v-6.2A.42.42,0,0,0,532.62,151.76Z" transform="translate(-244.16 -41.44)"/><path class="cls-1" d="M522.79,165a7.18,7.18,0,0,1-3.49-.88l-6-3.47a3.31,3.31,0,0,1-1.55-1.66h-.13v-6.78a1,1,0,0,1,.3-.73,1,1,0,0,1,.73-.3l20,0h0a.9.9,0,0,1,.72.3,1,1,0,0,1,.31.72V159h-.08a2.44,2.44,0,0,1-1.2,1.42l-6.82,3.94A5.55,5.55,0,0,1,522.79,165Zm-9.95-6.73v.06a1.88,1.88,0,0,0,1.06,1.25l6,3.47a5.67,5.67,0,0,0,5,.24l6.82-3.94a1.09,1.09,0,0,0,.66-.93l0-.66h0v-5.38l-19.58,0Z" transform="translate(-244.16 -41.44)"/><path class="cls-1" d="M532.62,151.78l-9.2,0v12.56a4.46,4.46,0,0,0,1.82-.52l6.82-3.94a1.62,1.62,0,0,0,1-1.51h0v-6.2A.41.41,0,0,0,532.62,151.78Z" transform="translate(-244.16 -41.44)"/><path class="cls-2" d="M532.06,153.3l-6.82,3.94a6.27,6.27,0,0,1-5.63-.23l-6-3.48c-1.66-1-1.84-2.41-.4-3.24l6.82-3.94a6.24,6.24,0,0,1,5.63.23l6,3.47C533.32,151,533.51,152.47,532.06,153.3Z" transform="translate(-244.16 -41.44)"/><path class="cls-1" d="M522.79,158.42a7.18,7.18,0,0,1-3.49-.88l-6-3.47a2.89,2.89,0,0,1-1.69-2.37,2.29,2.29,0,0,1,1.28-1.95l6.83-3.94A6.87,6.87,0,0,1,526,146l6,3.48a2.9,2.9,0,0,1,1.68,2.37,2.27,2.27,0,0,1-1.28,2h0l-6.82,3.94A5.66,5.66,0,0,1,522.79,158.42Zm-.34-12a4.41,4.41,0,0,0-2.13.48l-6.82,3.94a1.11,1.11,0,0,0-.67.88c0,.43.4.91,1.07,1.3l6,3.47a5.67,5.67,0,0,0,5,.24l6.82-3.94a1.13,1.13,0,0,0,.67-.88c0-.43-.4-.92-1.07-1.3l-6-3.48A5.94,5.94,0,0,0,522.45,146.4Z" transform="translate(-244.16 -41.44)"/><rect class="cls-1" x="275.48" y="115.89" width="1.23" height="6.55"/><rect class="cls-3" x="286.05" y="114.23" width="0.95" height="3.22"/><path class="cls-3" d="M530.13,127.57h0c-.06-.09-.2-.08-.31.12l-9.07,16.25L520,144l-2.45-1.48-.53-.64-3.42-1.74c-.17-.1-.43.29-.32.46l7,10.18,3.18,1.72a.06.06,0,0,0,.08,0l.61-5,8.26-15.89,1.13-2.24a.15.15,0,0,0-.07-.19Z" transform="translate(-244.16 -41.44)"/><path class="cls-1" d="M523.5,153.06l-.28-.12-3.29-1.78-7-10.27a.82.82,0,0,1,.14-1,.67.67,0,0,1,.82-.15l3.53,1.85.49.57,2.24,1.35.35,0,8.94-16A.71.71,0,0,1,530,127a.56.56,0,0,1,.4.14l3.24,1.58a.6.6,0,0,1,.28.83l-1.12,2.25-8.22,15.81-.64,5.13Zm-2.91-2.63,2.53,1.37.59-4.51,9.22-17.82-2.8-1.36-9.08,16.28-1.16.12-2.71-1.66-.47-.56L514.09,141Z" transform="translate(-244.16 -41.44)"/><path class="cls-1" d="M516.7,142.36l7,10.18s.08,0,.1-.06l9.76-22.94c.14-.31-.14-.41-.31-.11L524,146s-.06.07-.08.05L517,141.9C516.85,141.81,516.59,142.19,516.7,142.36Z" transform="translate(-244.16 -41.44)"/><path class="cls-1" d="M523.47,153.05l-.19-.25-7-10.17a.8.8,0,0,1,.14-1,.65.65,0,0,1,.81-.16l6.51,3.92,9.05-16.21a.69.69,0,0,1,.91-.37.66.66,0,0,1,.26.89l-9.77,22.95a.58.58,0,0,1-.47.36Zm-5.88-10.24,6,8.81,7.14-16.78-6.46,11.57-.25.11a.47.47,0,0,1-.4-.06Z" transform="translate(-244.16 -41.44)"/><path class="cls-3" d="M464.35,270.61l-20,0a.41.41,0,0,0-.41.41V288.6h0a2.39,2.39,0,0,0,1.37,1.74l6,3.48a6.27,6.27,0,0,0,5.63.23l6.83-3.94a1.63,1.63,0,0,0,1-1.51h0V271A.41.41,0,0,0,464.35,270.61Z" transform="translate(-244.16 -41.44)"/><path class="cls-1" d="M454.52,295.23a7.14,7.14,0,0,1-3.48-.88l-6-3.47a3.35,3.35,0,0,1-1.55-1.66h-.12V271.05a1,1,0,0,1,1-1l20,0a1,1,0,0,1,1,1v18.2h-.07a2.53,2.53,0,0,1-1.2,1.43l-6.83,3.93A5.52,5.52,0,0,1,454.52,295.23Zm-9.95-6.72v.05a1.82,1.82,0,0,0,1.06,1.25l6,3.47a5.67,5.67,0,0,0,5,.24l6.83-3.94a1.08,1.08,0,0,0,.65-.93l-.05-.66h.06V271.23l-19.58,0Z" transform="translate(-244.16 -41.44)"/><path class="cls-1" d="M464.35,270.63h-9.2v24a4.62,4.62,0,0,0,1.82-.53l6.83-3.94a1.63,1.63,0,0,0,1-1.51h0V271A.41.41,0,0,0,464.35,270.63Z" transform="translate(-244.16 -41.44)"/><path class="cls-2" d="M463.8,272.15,457,276.09a6.27,6.27,0,0,1-5.63-.23l-6-3.48c-1.67-1-1.85-2.41-.41-3.25l6.83-3.94a6.24,6.24,0,0,1,5.63.24l6,3.47C465.06,269.86,465.24,271.32,463.8,272.15Z" transform="translate(-244.16 -41.44)"/><path class="cls-1" d="M454.52,277.27a7.14,7.14,0,0,1-3.48-.88l-6-3.47a2.93,2.93,0,0,1-1.69-2.38,2.27,2.27,0,0,1,1.29-1.94l6.82-3.94a6.83,6.83,0,0,1,6.24.23l6,3.48a2.9,2.9,0,0,1,1.69,2.37,2.27,2.27,0,0,1-1.29,1.94l-6.82,3.94A5.52,5.52,0,0,1,454.52,277.27Zm-.33-12a4.25,4.25,0,0,0-2.13.48l-6.83,3.94a1.12,1.12,0,0,0-.66.87c0,.43.4.92,1.07,1.31l6,3.47a5.67,5.67,0,0,0,5,.24l6.83-3.95a1.12,1.12,0,0,0,.66-.87c0-.43-.4-.92-1.07-1.31l-6-3.47A6,6,0,0,0,454.19,265.25Z" transform="translate(-244.16 -41.44)"/><rect class="cls-1" x="207.21" y="234.74" width="1.23" height="17.93"/><rect class="cls-3" x="217.79" y="233.08" width="0.95" height="14.6"/><path class="cls-3" d="M478.2,289.26l-20,0a.41.41,0,0,0-.41.41v6.16h0a2.38,2.38,0,0,0,1.36,1.75l6,3.47a6.24,6.24,0,0,0,5.63.23l6.82-3.94a1.63,1.63,0,0,0,1-1.51h0v-6.19A.42.42,0,0,0,478.2,289.26Z" transform="translate(-244.16 -41.44)"/><path class="cls-1" d="M468.37,302.5a7.06,7.06,0,0,1-3.48-.88l-6-3.47a3.33,3.33,0,0,1-1.54-1.66h-.13v-6.78a1,1,0,0,1,1-1l20,0a1,1,0,0,1,1,1v6.81h-.07a2.49,2.49,0,0,1-1.2,1.43l-6.83,3.94A5.63,5.63,0,0,1,468.37,302.5Zm-9.94-6.72v.05c0,.43.42.88,1.06,1.25l6,3.48a5.7,5.7,0,0,0,5,.23l6.82-3.94a1.08,1.08,0,0,0,.66-.93l-.05-.66H478v-5.38l-19.58,0Z" transform="translate(-244.16 -41.44)"/><path class="cls-1" d="M478.2,289.28l-9.2,0v12.57a4.67,4.67,0,0,0,1.83-.53l6.82-3.94a1.63,1.63,0,0,0,1-1.51h0v-6.2A.42.42,0,0,0,478.2,289.28Z" transform="translate(-244.16 -41.44)"/><path class="cls-2" d="M477.65,290.8l-6.82,3.94a6.24,6.24,0,0,1-5.63-.23l-6-3.47c-1.66-1-1.85-2.42-.4-3.25l6.82-3.94a6.24,6.24,0,0,1,5.63.23l6,3.47C478.91,288.52,479.09,290,477.65,290.8Z" transform="translate(-244.16 -41.44)"/><path class="cls-1" d="M468.38,295.92a7.07,7.07,0,0,1-3.49-.88l-6-3.47a2.9,2.9,0,0,1-1.68-2.37,2.27,2.27,0,0,1,1.28-1.95l6.82-3.94a6.86,6.86,0,0,1,6.25.24l6,3.47a2.89,2.89,0,0,1,1.69,2.37,2.29,2.29,0,0,1-1.28,1.95l-6.83,3.94A5.62,5.62,0,0,1,468.38,295.92Zm-.34-12a4.38,4.38,0,0,0-2.13.48l-6.82,3.94a1.13,1.13,0,0,0-.67.88c0,.43.4.92,1.07,1.3l6,3.48a5.7,5.7,0,0,0,5,.23l6.82-3.94a1.13,1.13,0,0,0,.67-.88c0-.43-.4-.91-1.07-1.3l-6-3.48A6,6,0,0,0,468,283.9Z" transform="translate(-244.16 -41.44)"/><rect class="cls-1" x="221.06" y="253.39" width="1.23" height="6.55"/><rect class="cls-3" x="231.64" y="251.73" width="0.95" height="3.22"/><path class="cls-3" d="M461.19,246.87h0c-.06-.09-.2-.08-.31.12l-9.07,16.25-.75.08-2.45-1.48-.53-.64-3.42-1.74c-.17-.1-.43.29-.32.46l7,10.18,3.18,1.71a.05.05,0,0,0,.08,0l.61-5,8.26-15.89,1.13-2.25a.14.14,0,0,0-.07-.18Z" transform="translate(-244.16 -41.44)"/><path class="cls-1" d="M454.55,272.36l-.27-.12L451,270.46l-.06-.09-7-10.18a.82.82,0,0,1,.14-1,.63.63,0,0,1,.81-.15l3.54,1.84.49.58,2.24,1.35.35,0,8.94-16a.74.74,0,0,1,.62-.42h0a.61.61,0,0,1,.39.15l3.24,1.58a.61.61,0,0,1,.32.35.66.66,0,0,1,0,.48l-1.13,2.24L455.66,267l-.64,5.13Zm-2.9-2.63,2.53,1.36.59-4.5L464,248.77l-2.8-1.37-9.08,16.29-1.16.12-2.71-1.66-.47-.57-2.62-1.33Z" transform="translate(-244.16 -41.44)"/><path class="cls-1" d="M447.76,261.66l7,10.18s.08,0,.1-.06l9.77-22.95c.13-.31-.15-.4-.32-.1l-9.24,16.57s-.06.07-.08.05l-6.89-4.15C447.91,261.1,447.65,261.49,447.76,261.66Z" transform="translate(-244.16 -41.44)"/><path class="cls-1" d="M454.52,272.35l-.18-.25-7-10.17a.82.82,0,0,1,.14-1,.65.65,0,0,1,.82-.15l6.5,3.92,9.05-16.21a.68.68,0,0,1,.91-.37.66.66,0,0,1,.26.89l-9.77,23a.6.6,0,0,1-.47.36Zm-5.87-10.24,6,8.81,7.14-16.78-6.46,11.57-.26.11a.51.51,0,0,1-.4-.07Z" transform="translate(-244.16 -41.44)"/><path class="cls-3" d="M360.08,182l-20,0a.41.41,0,0,0-.41.41v41.27h0a2.37,2.37,0,0,0,1.36,1.74l6,3.47a6.22,6.22,0,0,0,5.62.23l6.83-3.94a1.62,1.62,0,0,0,1-1.5h0v-41.3A.41.41,0,0,0,360.08,182Z" transform="translate(-244.16 -41.44)"/><path class="cls-1" d="M350.25,230.36a7,7,0,0,1-3.48-.89l-6-3.47a3.4,3.4,0,0,1-1.55-1.66h-.12V182.46a1,1,0,0,1,1-1l20,0a1,1,0,0,1,1,1v41.91H361a2.43,2.43,0,0,1-1.2,1.43L353,229.71A5.63,5.63,0,0,1,350.25,230.36Zm-9.94-6.73v.05c0,.43.42.88,1.06,1.25l6,3.48a5.66,5.66,0,0,0,5,.23l6.82-3.94a1.08,1.08,0,0,0,.66-.93l-.05-.66h.05V182.63l-19.58,0Z" transform="translate(-244.16 -41.44)"/><path class="cls-1" d="M360.08,182h-9.2v47.67a4.57,4.57,0,0,0,1.82-.53l6.83-3.94a1.63,1.63,0,0,0,1-1.51h0V182.45A.41.41,0,0,0,360.08,182Z" transform="translate(-244.16 -41.44)"/><path class="cls-2" d="M359.53,183.56l-6.83,3.94a6.25,6.25,0,0,1-5.62-.24l-6-3.47c-1.66-1-1.85-2.42-.4-3.25l6.82-3.94a6.27,6.27,0,0,1,5.63.23l6,3.48C360.79,181.27,361,182.72,359.53,183.56Z" transform="translate(-244.16 -41.44)"/><path class="cls-1" d="M350.25,188.68a7.14,7.14,0,0,1-3.48-.88l-6-3.48a2.89,2.89,0,0,1-1.68-2.37,2.24,2.24,0,0,1,1.28-1.94l6.82-3.94a6.83,6.83,0,0,1,6.25.23l6,3.47a2.93,2.93,0,0,1,1.69,2.37,2.29,2.29,0,0,1-1.28,2L353,188A5.63,5.63,0,0,1,350.25,188.68Zm-.33-12a4.38,4.38,0,0,0-2.13.47L341,181.07a1.14,1.14,0,0,0-.66.88c0,.43.4.92,1.07,1.31l6,3.47a5.66,5.66,0,0,0,5,.23l6.82-3.94a1.13,1.13,0,0,0,.67-.88c0-.43-.4-.91-1.07-1.3l-6-3.47A5.94,5.94,0,0,0,349.92,176.66Z" transform="translate(-244.16 -41.44)"/><rect class="cls-1" x="102.94" y="146.14" width="1.23" height="41.65"/><rect class="cls-3" x="113.52" y="144.48" width="0.95" height="38.31"/><path class="cls-3" d="M346.1,217.61l-20,0a.41.41,0,0,0-.41.41v20.4h0a2.39,2.39,0,0,0,1.37,1.74l6,3.48a6.27,6.27,0,0,0,5.63.23l6.83-3.94a1.64,1.64,0,0,0,1-1.51h0V218A.41.41,0,0,0,346.1,217.61Z" transform="translate(-244.16 -41.44)"/><path class="cls-1" d="M336.27,245.08a7.14,7.14,0,0,1-3.48-.88l-6-3.48a3.34,3.34,0,0,1-1.55-1.65h-.12v-21a1,1,0,0,1,1-1l20,0h0a1,1,0,0,1,.73.3,1.06,1.06,0,0,1,.3.73v21h-.07a2.48,2.48,0,0,1-1.2,1.42L339,244.43A5.52,5.52,0,0,1,336.27,245.08Zm-9.94-6.72v0a1.85,1.85,0,0,0,1.06,1.25l6,3.47a5.63,5.63,0,0,0,5,.23l6.83-3.93a1.11,1.11,0,0,0,.65-.93l-.05-.67h.06v-19.6l-19.58,0Z" transform="translate(-244.16 -41.44)"/><path class="cls-1" d="M346.1,217.63h-9.2v26.8a4.46,4.46,0,0,0,1.82-.52l6.83-3.94a1.64,1.64,0,0,0,1-1.51h0V218A.41.41,0,0,0,346.1,217.63Z" transform="translate(-244.16 -41.44)"/><path class="cls-2" d="M345.55,219.15l-6.83,3.94a6.27,6.27,0,0,1-5.63-.23l-6-3.48c-1.67-1-1.85-2.41-.41-3.25l6.83-3.94a6.28,6.28,0,0,1,5.63.24l6,3.47C346.81,216.86,347,218.32,345.55,219.15Z" transform="translate(-244.16 -41.44)"/><path class="cls-1" d="M336.27,224.27a7.14,7.14,0,0,1-3.48-.88l-6-3.47a2.93,2.93,0,0,1-1.69-2.37,2.28,2.28,0,0,1,1.29-2l6.82-3.94a6.86,6.86,0,0,1,6.25.23l6,3.48a2.91,2.91,0,0,1,1.69,2.37,2.26,2.26,0,0,1-1.28,1.94L339,223.62A5.52,5.52,0,0,1,336.27,224.27Zm-.33-12a4.36,4.36,0,0,0-2.13.48L327,216.67a1.12,1.12,0,0,0-.66.88c0,.42.4.91,1.07,1.3l6,3.47a5.67,5.67,0,0,0,5,.24l6.83-3.94c.3-.18.67-.47.67-.88s-.41-.92-1.07-1.31l-6-3.47A5.94,5.94,0,0,0,335.94,212.25Z" transform="translate(-244.16 -41.44)"/><rect class="cls-1" x="88.96" y="181.74" width="1.23" height="20.78"/><rect class="cls-3" x="99.54" y="180.08" width="0.95" height="17.44"/><path class="cls-3" d="M356.92,157.86h0c-.05-.09-.2-.08-.31.12l-9.06,16.25-.76.08-2.44-1.48-.54-.64-3.42-1.74c-.16-.09-.43.29-.31.46l7,10.18,3.19,1.72s.07,0,.07,0l.62-5,8.25-15.89,1.13-2.24a.14.14,0,0,0-.06-.19Z" transform="translate(-244.16 -41.44)"/><path class="cls-1" d="M350.28,183.35l-.27-.12-3.29-1.77-.06-.1-7-10.18a.79.79,0,0,1,.15-1,.64.64,0,0,1,.81-.16l3.54,1.85.48.58,2.24,1.35.35,0,8.94-16a.73.73,0,0,1,.63-.42.62.62,0,0,1,.39.14l3.25,1.58a.58.58,0,0,1,.31.36.64.64,0,0,1,0,.47l-1.13,2.25L351.39,178l-.63,5.13Zm-2.9-2.63,2.53,1.37.59-4.51,9.23-17.82-2.8-1.36-9.09,16.28-1.16.12-2.7-1.66-.47-.56-2.62-1.34Z" transform="translate(-244.16 -41.44)"/><path class="cls-1" d="M343.5,172.65l7,10.18s.08,0,.11-.06l9.76-22.94c.13-.31-.15-.41-.31-.11l-9.24,16.57c0,.05-.07.07-.09.05l-6.89-4.15C343.65,172.1,343.38,172.48,343.5,172.65Z" transform="translate(-244.16 -41.44)"/><path class="cls-1" d="M350.27,183.35l-.19-.25-7-10.18a.8.8,0,0,1,.14-1,.66.66,0,0,1,.82-.16l6.51,3.92,9-16.21a.7.7,0,0,1,.91-.37.66.66,0,0,1,.26.89L351,183a.6.6,0,0,1-.47.36Zm-5.88-10.25,6,8.81,7.14-16.78-6.45,11.57-.25.11a.51.51,0,0,1-.4-.05Z" transform="translate(-244.16 -41.44)"/><rect class="cls-3" x="352.43" y="169.6" width="7.1" height="0.96" transform="translate(-183.86 389.83) rotate(-66.99)"/></g></svg>